<svg width="322" height="142" viewBox="0 0 322 142" fill="none" xmlns="http://www.w3.org/2000/svg">
<mask id="mask0_99_2714" style="mask-type:luminance" maskUnits="userSpaceOnUse" x="0" y="0" width="322" height="142">
<path d="M321.595 0H0V141.393H321.595V0Z" fill="white"/>
</mask>
<g mask="url(#mask0_99_2714)">
<path fill-rule="evenodd" clip-rule="evenodd" d="M161.045 139.407C132.611 138.988 104.265 134.928 75.6362 118.493C69.0446 114.502 62.1348 109.5 55.9143 102.564C43.7206 88.7609 40.5573 74.5396 44.0034 60.2138C46.4067 51.1687 51.4963 42.4024 61.2689 33.4444C78.3754 18.5957 95.747 12.4262 113.101 7.77293C142.737 0.435736 172.656 0.156888 202.61 6.29155C220.865 10.4568 239.138 16.2429 257.587 30.6908C262.359 34.5424 267.271 39.6488 270.47 44.2323C278.811 56.1705 281.215 68.7535 278.069 81.1971C275.666 90.2423 270.576 99.0086 260.803 107.967C243.697 122.815 226.325 128.967 208.971 133.621C193.031 137.542 177.056 139.407 161.045 139.407Z" fill="#C0C07F"/>
</g>
<mask id="mask1_99_2714" style="mask-type:luminance" maskUnits="userSpaceOnUse" x="0" y="0" width="322" height="142">
<path d="M321.595 0H0V141.393H321.595V0Z" fill="white"/>
</mask>
<g mask="url(#mask1_99_2714)">
<path fill-rule="evenodd" clip-rule="evenodd" d="M161.451 134.004C223.798 134.004 274.358 105.649 274.358 70.6879C274.358 35.7099 223.798 7.35455 161.451 7.35455C99.1046 7.35455 48.545 35.7099 48.545 70.6879C48.545 105.666 99.1046 134.004 161.451 134.004Z" fill="black"/>
</g>
<mask id="mask2_99_2714" style="mask-type:luminance" maskUnits="userSpaceOnUse" x="0" y="0" width="322" height="142">
<path d="M321.595 0H0V141.393H321.595V0Z" fill="white"/>
</mask>
<g mask="url(#mask2_99_2714)">
<path d="M306.91 97.7363H16.7177V100.072H306.91V97.7363Z" fill="#FF0033"/>
</g>
<mask id="mask3_99_2714" style="mask-type:luminance" maskUnits="userSpaceOnUse" x="0" y="0" width="322" height="142">
<path d="M321.595 0H0V141.393H321.595V0Z" fill="white"/>
</mask>
<g mask="url(#mask3_99_2714)">
<path d="M306.91 97.7363H16.7177V100.072H306.91V97.7363Z" stroke="#161619" stroke-width="0.216" stroke-miterlimit="10"/>
</g>
<mask id="mask4_99_2714" style="mask-type:luminance" maskUnits="userSpaceOnUse" x="0" y="0" width="322" height="142">
<path d="M321.595 0H0V141.393H321.595V0Z" fill="white"/>
</mask>
<g mask="url(#mask4_99_2714)">
<path d="M313.466 92.3859H23.274V94.7038H313.466V92.3859Z" fill="#FF0033"/>
</g>
<mask id="mask5_99_2714" style="mask-type:luminance" maskUnits="userSpaceOnUse" x="0" y="0" width="322" height="142">
<path d="M321.595 0H0V141.393H321.595V0Z" fill="white"/>
</mask>
<g mask="url(#mask5_99_2714)">
<path d="M313.466 92.3859H23.274V94.7038H313.466V92.3859Z" stroke="#161619" stroke-width="0.216" stroke-miterlimit="10"/>
</g>
<mask id="mask6_99_2714" style="mask-type:luminance" maskUnits="userSpaceOnUse" x="0" y="0" width="322" height="142">
<path d="M321.595 0H0V141.393H321.595V0Z" fill="white"/>
</mask>
<g mask="url(#mask6_99_2714)">
<path d="M320.022 87.0355H29.8303V89.3534H320.022V87.0355Z" fill="#FF0033"/>
</g>
<mask id="mask7_99_2714" style="mask-type:luminance" maskUnits="userSpaceOnUse" x="0" y="0" width="322" height="142">
<path d="M321.595 0H0V141.393H321.595V0Z" fill="white"/>
</mask>
<g mask="url(#mask7_99_2714)">
<path d="M320.022 87.0355H29.8303V89.3534H320.022V87.0355Z" stroke="#161619" stroke-width="0.216" stroke-miterlimit="10"/>
</g>
<mask id="mask8_99_2714" style="mask-type:luminance" maskUnits="userSpaceOnUse" x="0" y="0" width="322" height="142">
<path d="M321.595 0H0V141.393H321.595V0Z" fill="white"/>
</mask>
<g mask="url(#mask8_99_2714)">
<path fill-rule="evenodd" clip-rule="evenodd" d="M72.0664 103.365H282.045C285.474 103.365 288.266 96.464 288.266 88.0463C288.266 79.6285 285.456 72.7271 282.045 72.7271H72.0664C68.638 72.7271 65.8459 79.6285 65.8459 88.0463C65.8459 96.464 68.638 103.365 72.0664 103.365Z" fill="#C7AE39"/>
</g>
<mask id="mask9_99_2714" style="mask-type:luminance" maskUnits="userSpaceOnUse" x="0" y="0" width="322" height="142">
<path d="M321.595 0H0V141.393H321.595V0Z" fill="white"/>
</mask>
<g mask="url(#mask9_99_2714)">
<path d="M72.0664 103.365H282.045C285.474 103.365 288.266 96.464 288.266 88.0463C288.266 79.6285 285.456 72.7271 282.045 72.7271H72.0664C68.638 72.7271 65.8459 79.6285 65.8459 88.0463C65.8459 96.464 68.638 103.365 72.0664 103.365Z" stroke="#161619" stroke-width="0.216" stroke-miterlimit="10"/>
</g>
<mask id="mask10_99_2714" style="mask-type:luminance" maskUnits="userSpaceOnUse" x="0" y="0" width="322" height="142">
<path d="M321.595 0H0V141.393H321.595V0Z" fill="white"/>
</mask>
<g mask="url(#mask10_99_2714)">
<path fill-rule="evenodd" clip-rule="evenodd" d="M263.012 96.7081L262.765 97.4052C262.465 97.3878 262.27 97.3703 262.182 97.3703L260.786 97.2309C259.107 97.0741 257.764 97.0043 256.739 96.9869L256.721 96.3072C256.721 95.8018 256.721 95.3313 256.703 94.8781V94.4076L256.686 93.937L256.668 90.8348C256.633 88.0812 256.633 86.8438 256.633 87.1227C256.633 86.0247 256.633 85.3624 256.65 85.1359L256.686 82.1731L256.721 79.5763C256.721 79.5066 256.721 79.4369 256.739 79.3846V79.1232C258.17 79.0012 259.354 78.9141 260.291 78.8792C261.333 78.8444 262.252 78.8095 263.048 78.8095C264.62 78.8095 265.964 78.9141 267.077 79.1232C268.137 79.3323 269.074 79.6809 269.904 80.134C271.548 81.0926 272.361 82.3474 272.361 83.8811C272.361 84.6653 272.113 85.3973 271.636 86.077C271.141 86.7567 270.417 87.3318 269.445 87.8546C268.738 88.2381 267.607 88.604 266.105 88.9177L266.476 89.3012L268.332 91.2357L270.611 93.6059C271.035 94.0416 271.442 94.4599 271.866 94.8781C272.219 95.2441 272.644 95.6798 273.156 96.1504L273.722 96.2201C274.641 96.3246 275.506 96.4466 276.319 96.5686L276.991 96.6732L276.708 97.4575C275.312 97.2658 273.616 97.1612 271.636 97.1089L271.354 96.8126C270.435 95.889 269.763 95.1918 269.304 94.7213L267.519 92.8391L265.239 90.4514L263.33 88.4298L262.871 87.9766C264.126 87.7152 265.098 87.2447 265.769 86.565C266.458 85.9027 266.776 85.0662 266.776 84.0379C266.776 82.7657 266.246 81.7723 265.186 81.0403C264.126 80.3257 262.641 79.9598 260.715 79.9598C260.255 79.9598 259.655 80.012 258.948 80.0817C258.912 80.7266 258.859 81.5631 258.824 82.5914C258.753 84.6653 258.718 86.2164 258.718 87.2447C258.718 88.0289 258.718 88.5866 258.736 88.9352C258.753 89.2663 258.753 89.8414 258.753 90.6431L258.806 93.083C258.806 93.2225 258.824 93.7627 258.842 94.6864C258.877 95.2964 258.895 95.7844 258.912 96.1504L259.301 96.2027L260.768 96.3769C261.351 96.4466 262.076 96.5512 263.012 96.7081ZM267.43 97.3878L267.024 96.9521C266.953 96.8475 266.882 96.7604 266.812 96.6906C266.741 96.6209 266.688 96.5338 266.617 96.4466C266.405 96.2201 266.07 95.8715 265.61 95.3661C265.345 95.0698 265.045 94.7387 264.709 94.3553C264.373 93.9893 264.108 93.7105 263.931 93.5187C263.755 93.3445 263.631 93.205 263.542 93.1005C262.747 92.2116 262.182 91.6017 261.864 91.288L259.655 88.9352L259.195 88.4298C259.902 88.3949 260.609 88.3426 261.333 88.2555L261.616 88.5866C262.146 89.092 262.906 89.9286 263.914 91.044L266.67 94.0764L269.021 96.7081L269.48 97.2135C268.95 97.1961 268.243 97.2658 267.43 97.3878ZM248.963 97.4923L248.822 96.7604C249.635 96.5861 250.836 96.4118 252.409 96.2201L252.869 96.1678C252.922 95.6798 252.975 94.6167 253.01 92.9785L253.081 90.434C253.116 89.2489 253.116 88.4123 253.116 87.9069C253.116 86.2164 253.081 84.735 253.028 83.4628C253.028 83.3234 253.028 82.9922 253.01 82.452C252.992 81.9117 252.975 81.3366 252.922 80.7092L252.869 80.1515C251.596 80.0643 250.235 79.8726 248.804 79.646L249.016 78.8444C251.172 79.0884 253.151 79.2103 254.936 79.2278C255.007 80.0469 255.06 81.1274 255.078 82.452C255.113 84.2819 255.148 85.711 255.148 86.7392C255.148 87.9244 255.131 89.2837 255.113 90.8174L255.042 93.693C255.025 93.8847 255.025 94.1984 255.025 94.5993C255.025 94.9827 255.025 95.2267 255.007 95.3661C254.989 95.9935 254.972 96.5338 254.936 96.9695C253.363 97.0043 252.073 97.0915 251.084 97.2135L249.476 97.4226C249.44 97.4226 249.387 97.44 249.334 97.44C249.157 97.4749 249.034 97.4923 248.963 97.4923ZM266.37 87.7326C267.713 87.3667 268.72 86.8787 269.392 86.2338C270.063 85.6064 270.399 84.8222 270.399 83.8985C270.399 82.8528 269.94 81.964 269.038 81.2494C268.137 80.5349 266.936 80.0817 265.451 79.9249C266.087 80.2212 266.458 80.3954 266.529 80.4477C267.183 80.8137 267.695 81.3191 268.084 81.9291C268.455 82.5565 268.65 83.2362 268.65 83.9508C268.632 85.4844 267.89 86.7392 266.37 87.7326ZM229.064 97.1089V96.5861C229.029 96.4466 229.011 96.0981 228.994 95.5055L228.958 93.449C228.941 93.2922 228.941 92.8042 228.941 91.9677V90.9743L228.923 87.3318C228.923 86.0421 228.941 84.3342 228.976 82.2254C229.011 80.7789 229.064 79.8029 229.117 79.2801C229.895 79.2801 231.609 79.2452 234.278 79.1929C236.01 79.1232 237.035 79.0883 237.37 79.0709C238.289 79.0361 239.208 79.0012 240.162 78.9315C240.975 78.8966 241.682 78.8444 242.265 78.7572C242.318 78.6526 242.354 78.5829 242.354 78.5481L242.477 78.217C242.477 78.1821 242.495 78.1298 242.53 78.0427L243.856 78.2518C243.803 78.3738 243.75 78.6178 243.715 78.9489L243.644 79.4021C243.644 79.4195 243.644 79.4369 243.626 79.4718C243.626 79.524 243.608 79.5763 243.591 79.6286C242.707 79.7158 241.947 79.7855 241.346 79.8378C240.233 79.89 239.473 79.9423 239.084 79.9946C239.42 80.0643 239.615 80.0817 239.685 80.0817L240.622 80.2212C241.258 80.3083 242.23 80.4826 243.502 80.7092C243.467 81.2494 243.467 81.7025 243.467 82.086C243.467 82.7482 243.502 83.4628 243.555 84.2122H242.124C242.053 83.3756 242.018 82.6088 242.018 81.9117V81.5806C241.064 81.3366 240.039 81.1274 238.925 80.9706C237.9 80.8137 236.699 80.6743 235.338 80.5697C234.101 80.4652 232.705 80.4129 231.185 80.3955L231.167 80.7789C231.079 82.2428 231.026 83.1316 231.026 83.4454C231.008 84.4562 230.991 85.2753 230.991 85.9201V86.3733V87.1924H231.309C232.44 87.1924 233.871 87.1401 235.603 87.0181C237.07 86.931 238.395 86.7915 239.544 86.6173C239.615 86.077 239.721 85.589 239.862 85.1533L241.187 85.3799L241.152 85.7633C241.081 86.4255 241.046 87.0181 241.046 87.5409C240.852 87.5584 240.728 87.5758 240.657 87.5758C240.587 87.5932 240.534 87.5932 240.516 87.5932L239.173 87.7326L237.971 87.8546C237.794 87.8721 237.582 87.9069 237.335 87.9418C238.625 88.0638 239.862 88.2381 241.028 88.4472V88.7435C241.028 89.6323 241.064 90.434 241.17 91.1485H239.756C239.685 90.8 239.632 90.4688 239.615 90.1551L239.597 89.5103L239.579 89.2837C238.519 89.0572 237.052 88.848 235.179 88.6389C233.96 88.4995 232.563 88.4123 231.008 88.3426V88.9003C231.044 90.1377 231.061 91.3402 231.097 92.5253C231.132 93.7279 231.167 94.669 231.203 95.3835L231.22 95.9064H231.98C235.497 95.9064 239.049 95.5752 242.637 94.8781C242.69 94.4773 242.778 93.9719 242.902 93.3793C243.025 92.7868 243.167 92.2814 243.343 91.8457L244.704 92.0896C244.386 93.0482 244.192 94.2507 244.139 95.7147L243.538 95.8018L242.036 96.0458L240.498 96.2724C240.304 96.3072 240.109 96.3246 239.897 96.3769C240.092 96.3769 240.215 96.3769 240.286 96.3944C240.339 96.3944 240.392 96.3944 240.445 96.3944C240.498 96.3944 240.516 96.4118 240.534 96.4118L242.23 96.5164C242.937 96.5512 243.555 96.6035 244.086 96.6384C244.05 97.0218 244.05 97.3529 244.05 97.6666C244.05 97.9106 244.05 98.1023 244.068 98.2069H243.608C243.485 98.2069 243.308 98.2243 243.078 98.2243C242.849 98.2243 242.69 98.2069 242.601 98.2069V97.9803V97.7363V97.5272C241.081 97.3878 239.155 97.3006 236.822 97.2135C236.699 97.2135 236.54 97.2135 236.328 97.2135C236.116 97.1961 235.886 97.196 235.621 97.1786C235.356 97.1786 235.073 97.1612 234.79 97.1612C233.836 97.1438 233.182 97.1263 232.811 97.1089C231.485 97.0915 230.761 97.0915 230.637 97.0915C230.832 97.0915 230.301 97.0915 229.064 97.1089ZM221.218 97.4923L221.077 96.7604C221.89 96.5861 223.091 96.4118 224.664 96.2201L225.124 96.1678C225.177 95.6798 225.23 94.6167 225.265 92.9785L225.336 90.434C225.371 89.2489 225.371 88.4123 225.371 87.9069C225.371 86.2164 225.336 84.735 225.283 83.4628C225.283 83.3234 225.283 82.9922 225.265 82.452C225.247 81.9117 225.23 81.3366 225.177 80.7092L225.141 80.1515C223.869 80.0643 222.508 79.8726 221.077 79.646L221.289 78.8444C223.445 79.0884 225.424 79.2103 227.209 79.2278C227.28 80.0469 227.333 81.1274 227.35 82.452C227.386 84.2819 227.421 85.711 227.421 86.7392C227.421 87.9069 227.403 89.2663 227.386 90.8174L227.315 93.693C227.28 94.8084 227.28 95.4184 227.28 95.5404C227.28 95.7495 227.28 95.9238 227.28 96.0632C227.28 96.2027 227.262 96.3247 227.262 96.4466C227.262 96.5338 227.244 96.6558 227.244 96.7952C227.244 96.9346 227.227 97.0392 227.209 97.1089C225.212 97.1263 223.392 97.2309 221.748 97.4226L221.218 97.4923ZM216.676 96.7255L216.535 97.4575L216.022 97.3878C214.308 97.1961 212.488 97.0915 210.562 97.0741V96.8475C210.544 96.8126 210.544 96.7778 210.544 96.7255C210.526 96.4292 210.509 95.8192 210.473 94.8781V94.2507C210.456 94.1287 210.456 94.0067 210.456 93.9022C210.456 93.7976 210.456 93.7105 210.438 93.6756L210.385 90.7651C210.385 90.1377 210.385 89.5452 210.367 88.9875C210.35 88.4472 210.35 87.6629 210.35 86.6521C210.35 85.6413 210.367 84.2296 210.42 82.4171C210.456 80.8137 210.509 79.7332 210.562 79.1929C212.364 79.1755 214.344 79.0535 216.5 78.8095L216.712 79.5938C215.28 79.8378 213.937 80.012 212.647 80.1166L212.629 80.6569C212.594 81.3191 212.541 82.4868 212.506 84.1773C212.47 85.8853 212.435 87.1227 212.435 87.9069C212.435 89.2663 212.435 90.1029 212.453 90.3817L212.506 92.9262C212.541 94.5819 212.594 95.645 212.647 96.1329L213.107 96.1852C214.662 96.3595 215.863 96.5338 216.676 96.7255ZM202.68 97.4575L202.539 96.7255C203.352 96.5512 204.553 96.3769 206.126 96.1852L206.586 96.1329C206.639 95.645 206.692 94.5819 206.727 92.9262L206.798 90.3817C206.833 89.1966 206.833 88.3775 206.833 87.8721C206.833 86.1815 206.798 84.7002 206.745 83.4279C206.727 83.2362 206.727 83.0271 206.727 82.8179C206.727 82.6088 206.727 82.452 206.709 82.3474C206.692 82.1731 206.692 81.9814 206.692 81.8071C206.692 81.6154 206.692 81.476 206.674 81.3714C206.656 81.1797 206.656 80.9357 206.656 80.6569L206.621 80.1166C205.349 80.012 203.988 79.8378 202.556 79.5938L202.768 78.8095C204.924 79.0535 206.904 79.1755 208.706 79.1929C208.777 80.012 208.83 81.0751 208.848 82.4171C208.883 84.247 208.918 85.6761 208.918 86.7044C208.918 87.8721 208.901 89.2315 208.883 90.7651L208.812 93.6756C208.777 94.791 208.777 95.401 208.777 95.5055C208.777 95.7321 208.759 95.9935 208.742 96.2724C208.724 96.5686 208.706 96.8301 208.689 97.0741C206.692 97.0915 204.871 97.1961 203.228 97.3878L202.68 97.4575ZM185.026 96.7081L184.778 97.4052C184.478 97.3878 184.284 97.3703 184.195 97.3703L182.799 97.2309C181.12 97.0741 179.777 97.0043 178.752 96.9869L178.735 96.3072C178.735 95.8018 178.735 95.3313 178.717 94.8781V94.4076L178.699 93.937L178.682 90.8348C178.646 88.0812 178.629 86.8438 178.629 87.1227C178.629 86.0247 178.629 85.3624 178.646 85.1359L178.699 82.1731L178.735 79.5763C178.735 79.5066 178.735 79.4369 178.752 79.3846V79.1232C180.184 79.0012 181.368 78.9141 182.304 78.8792C183.347 78.8444 184.266 78.8095 185.061 78.8095C186.634 78.8095 187.977 78.9141 189.09 79.1232C190.151 79.3323 191.087 79.6809 191.918 80.134C193.561 81.0926 194.374 82.3474 194.374 83.8811C194.374 84.6653 194.127 85.3973 193.65 86.077C193.155 86.7567 192.43 87.3318 191.476 87.8546C190.769 88.2381 189.638 88.604 188.136 88.9177L188.507 89.3012L190.363 91.2357L192.642 93.6059C193.067 94.0416 193.473 94.4599 193.897 94.8781C194.251 95.2441 194.675 95.6798 195.187 96.1504L195.753 96.2201C196.672 96.3246 197.538 96.4466 198.35 96.5686L199.022 96.6732L198.739 97.4575C197.343 97.2658 195.647 97.1612 193.667 97.1089L193.385 96.8126C192.466 95.889 191.776 95.1918 191.335 94.7213L189.55 92.8391L187.27 90.4514L185.362 88.4298L184.902 87.9766C186.157 87.7152 187.129 87.2447 187.8 86.565C188.489 85.9027 188.808 85.0662 188.808 84.0379C188.808 82.7657 188.277 81.7723 187.217 81.0403C186.157 80.3257 184.672 79.9598 182.746 79.9598C182.287 79.9598 181.686 80.012 180.979 80.0817C180.944 80.7266 180.891 81.5631 180.855 82.5914C180.785 84.6653 180.749 86.2164 180.749 87.2447C180.749 88.0289 180.749 88.5866 180.767 88.9352C180.785 89.2663 180.785 89.8414 180.785 90.6431L180.838 93.083C180.838 93.2225 180.855 93.7627 180.873 94.6864C180.908 95.2964 180.926 95.7844 180.944 96.1504L181.332 96.2027L182.799 96.3769C183.347 96.4466 184.089 96.5512 185.026 96.7081ZM189.444 97.3878L189.055 96.9521C188.984 96.8475 188.914 96.7604 188.843 96.6906C188.772 96.6209 188.719 96.5338 188.649 96.4466C188.436 96.2201 188.118 95.8715 187.659 95.3661C187.394 95.0698 187.093 94.7387 186.758 94.3553C186.422 93.9893 186.157 93.7105 185.98 93.5187C185.803 93.3445 185.68 93.205 185.591 93.1005C184.796 92.2116 184.231 91.6017 183.912 91.288L181.703 88.9352L181.244 88.4298C181.951 88.3949 182.658 88.3426 183.382 88.2555L183.665 88.5866C184.195 89.092 184.955 89.9286 185.962 91.044L188.719 94.0764L191.07 96.7081L191.529 97.2135C190.964 97.1961 190.257 97.2658 189.444 97.3878ZM170.977 97.4923L170.835 96.7604C171.648 96.5861 172.85 96.4118 174.423 96.2201L174.882 96.1678C174.935 95.6798 174.988 94.6167 175.023 92.9785L175.094 90.434C175.129 89.2489 175.129 88.4123 175.129 87.9069C175.129 86.2164 175.094 84.735 175.041 83.4628C175.041 83.3234 175.041 82.9922 175.023 82.452C175.006 81.9117 174.988 81.3366 174.935 80.7092L174.9 80.1515C173.627 80.0643 172.267 79.8726 170.835 79.646L171.047 78.8444C173.203 79.0884 175.182 79.2103 176.985 79.2278C177.056 80.0469 177.109 81.1274 177.126 82.452C177.162 84.2819 177.197 85.711 177.197 86.7392C177.197 87.9244 177.179 89.2837 177.162 90.8174L177.091 93.693C177.073 93.8847 177.073 94.1984 177.073 94.5993C177.073 94.9827 177.073 95.2267 177.056 95.3661C177.038 95.9935 177.02 96.5338 176.985 96.9695C175.412 97.0043 174.122 97.0915 173.133 97.2135L171.524 97.4226C171.489 97.4226 171.436 97.44 171.383 97.44C171.171 97.4749 171.047 97.4923 170.977 97.4923ZM188.383 87.7326C189.727 87.3667 190.734 86.8787 191.405 86.2338C192.077 85.6064 192.413 84.8222 192.413 83.8985C192.413 82.8528 191.953 81.964 191.052 81.2494C190.151 80.5349 188.949 80.0817 187.465 79.9249C188.101 80.2212 188.472 80.3954 188.543 80.4477C189.196 80.8137 189.709 81.3191 190.098 81.9291C190.469 82.5565 190.663 83.2362 190.663 83.9508C190.645 85.4844 189.903 86.7392 188.383 87.7326ZM153.322 96.7081L153.075 97.4052C152.774 97.3878 152.58 97.3703 152.492 97.3703L151.096 97.2309C149.417 97.0741 148.074 97.0043 147.049 96.9869L147.031 96.3072C147.031 95.8018 147.031 95.3313 147.013 94.8781V94.4076L146.996 93.937L146.978 90.8348C146.943 88.0812 146.943 86.8438 146.943 87.1227C146.943 86.0247 146.943 85.3624 146.96 85.1359L146.996 82.1731L147.031 79.5763C147.031 79.5066 147.031 79.4369 147.049 79.3846V79.1232C148.48 79.0012 149.664 78.9141 150.601 78.8792C151.643 78.8444 152.562 78.8095 153.358 78.8095C154.93 78.8095 156.273 78.9141 157.387 79.1232C158.447 79.3323 159.384 79.6809 160.214 80.134C161.858 81.0926 162.688 82.3474 162.688 83.8811C162.688 84.6653 162.441 85.3973 161.964 86.077C161.469 86.7567 160.744 87.3318 159.79 87.8546C159.083 88.2381 157.952 88.604 156.45 88.9177L156.821 89.3012L158.677 91.2357L160.957 93.6059C161.381 94.0416 161.787 94.4599 162.211 94.8781C162.565 95.2441 162.989 95.6798 163.501 96.1504L164.067 96.2201C164.986 96.3246 165.852 96.4466 166.665 96.5686L167.336 96.6732L167.036 97.4575C165.64 97.2658 163.943 97.1612 161.964 97.1089L161.681 96.8126C160.762 95.889 160.073 95.1918 159.631 94.7213L157.846 92.8391L155.514 90.4514L153.605 88.4298L153.146 87.9766C154.4 87.7152 155.372 87.2447 156.044 86.565C156.733 85.9027 157.051 85.0662 157.051 84.0379C157.051 82.7657 156.521 81.7723 155.461 81.0403C154.4 80.3257 152.916 79.9598 150.99 79.9598C150.53 79.9598 149.929 80.012 149.222 80.0817C149.187 80.7266 149.134 81.5631 149.099 82.5914C149.028 84.6653 148.993 86.2164 148.993 87.2447C148.993 88.0289 148.993 88.5866 149.01 88.9352C149.028 89.2663 149.028 89.8414 149.028 90.6431L149.081 93.083C149.081 93.2225 149.099 93.7627 149.116 94.6864C149.152 95.2964 149.169 95.7844 149.187 96.1504L149.576 96.2027L151.043 96.3769C151.661 96.4466 152.386 96.5512 153.322 96.7081ZM157.74 97.3878L157.351 96.9521C157.281 96.8475 157.21 96.7604 157.139 96.6906C157.069 96.6209 157.016 96.5338 156.945 96.4466C156.733 96.2201 156.415 95.8715 155.938 95.3661C155.673 95.0698 155.372 94.7387 155.036 94.3553C154.701 93.9893 154.436 93.7105 154.259 93.5187C154.082 93.3445 153.958 93.205 153.87 93.1005C153.075 92.2116 152.509 91.6017 152.191 91.288L149.982 88.9352L149.523 88.4298C150.23 88.3949 150.936 88.3426 151.661 88.2555L151.979 88.5692C152.509 89.0746 153.269 89.9111 154.277 91.0265L157.033 94.059L159.384 96.6906L159.843 97.1961C159.26 97.1961 158.553 97.2658 157.74 97.3878ZM139.273 97.4923L139.132 96.7604C139.945 96.5861 141.146 96.4118 142.719 96.2201L143.178 96.1678C143.231 95.6798 143.285 94.6167 143.32 92.9785L143.391 90.434C143.426 89.2489 143.426 88.4123 143.426 87.9069C143.426 86.2164 143.391 84.735 143.338 83.4628C143.338 83.3234 143.338 82.9922 143.32 82.452C143.302 81.9117 143.285 81.3366 143.232 80.7092L143.196 80.1515C141.924 80.0643 140.563 79.8726 139.132 79.646L139.344 78.8444C141.5 79.0884 143.479 79.2103 145.264 79.2278C145.334 80.0469 145.387 81.1274 145.405 82.452C145.44 84.2819 145.476 85.711 145.476 86.7392C145.476 87.9244 145.458 89.2837 145.441 90.8174L145.37 93.693C145.352 93.8847 145.352 94.1984 145.352 94.5993C145.352 94.9827 145.352 95.2267 145.334 95.3661C145.317 95.9935 145.299 96.5338 145.264 96.9695C143.691 97.0043 142.401 97.0915 141.411 97.2135L139.785 97.4226C139.75 97.4226 139.697 97.44 139.644 97.44C139.467 97.4749 139.344 97.4923 139.273 97.4923ZM156.68 87.7326C158.023 87.3667 159.03 86.8787 159.702 86.2338C160.373 85.6064 160.709 84.8222 160.709 83.8985C160.709 82.8528 160.25 81.964 159.348 81.2494C158.447 80.5349 157.245 80.0817 155.761 79.9249C156.397 80.2212 156.751 80.3954 156.839 80.4477C157.493 80.8137 158.005 81.3191 158.394 81.9291C158.765 82.5565 158.96 83.2362 158.96 83.9508C158.942 85.4844 158.182 86.7392 156.68 87.7326ZM104.972 97.4052L104.512 97.4575L104.441 96.6558L104.901 96.5861C105.078 96.5512 105.466 96.4989 106.067 96.3944L107.057 96.2724C107.075 96.2724 107.234 96.2375 107.534 96.2027L107.764 95.8541C108.223 95.1918 108.824 94.3204 109.531 93.2573C110.026 92.5253 110.75 91.41 111.687 89.8937C112.959 87.8721 114.267 85.6239 115.61 83.1142C116.476 81.5108 117.112 80.256 117.519 79.3846L119.692 78.8792L119.922 79.3149L121.212 81.7897C122.025 83.3931 123.262 85.9027 124.906 89.3534C125.683 90.9917 126.372 92.4382 126.92 93.6756C127.468 94.9304 127.875 95.8715 128.122 96.5164L128.369 97.1263C126.726 97.1263 125.33 97.1786 124.128 97.3006L122.485 97.4226C122.396 97.4226 122.237 97.44 121.99 97.4749L121.813 96.7778C122.679 96.6035 123.792 96.4292 125.135 96.2724L125.683 96.2027L125.542 95.8192L124.853 94.1287C124.358 92.8739 123.916 91.7934 123.474 90.9045L123.351 90.6083C122.82 90.5734 122.025 90.556 121.035 90.5386C119.71 90.5211 118.508 90.5211 117.466 90.5211C115.981 90.5211 114.744 90.556 113.737 90.6083C112.712 92.5602 112.093 94.425 111.917 96.2027C113.525 96.3421 114.886 96.5338 115.946 96.7778L115.716 97.4575C113.967 97.2483 112.111 97.1438 110.185 97.1438C110.203 96.6035 110.273 95.9412 110.362 95.1395L110.432 94.7736C110.379 94.8607 110.309 94.9478 110.238 95.0176C110.167 95.1221 110.132 95.157 110.114 95.1744L109.549 96.0109C109.195 96.5164 108.93 96.8998 108.789 97.1438C108.047 97.1438 107.463 97.1612 107.022 97.1961C106.58 97.2309 105.873 97.3006 104.972 97.4052ZM136.145 96.7778L135.827 97.5098C135.403 97.4575 135.014 97.4226 134.696 97.3878C134.36 97.3703 134.113 97.3355 133.918 97.318L132.328 97.2135C131.409 97.1612 130.755 97.1263 130.349 97.1263C130.119 96.7778 130.013 96.5861 130.013 96.5686L128.652 93.815L127.185 90.9394C127.097 90.7651 126.973 90.5211 126.814 90.1726C126.726 89.9983 126.567 89.702 126.355 89.2663C126.266 89.092 126.178 88.8829 126.054 88.6563C125.948 88.4298 125.86 88.2729 125.825 88.1858L124.322 85.1359C124.022 84.5259 123.722 83.881 123.404 83.2362C123.297 83.0096 123.191 82.7831 123.085 82.5565C123.05 82.4868 122.997 82.3648 122.926 82.2254C122.856 82.1034 122.82 81.9988 122.785 81.964L121.336 78.9141L121.159 78.5829L123.05 78.1995L123.297 78.7224C123.739 79.6809 124.128 80.5523 124.517 81.3366C124.729 81.7723 124.906 82.1034 125.012 82.3125C125.118 82.5391 125.241 82.8354 125.418 83.1839C125.789 83.9508 126.001 84.3516 126.037 84.4387L127.556 87.4189L128.953 90.1551C129.112 90.4688 129.589 91.3577 130.349 92.8042L131.427 94.8258C131.745 95.3835 132.027 95.8541 132.275 96.2375L132.752 96.2898C134.236 96.4815 135.367 96.6384 136.145 96.7778ZM114.373 89.3186C115.098 89.336 116.087 89.3534 117.36 89.3534H120.099H121.901H122.82C122.467 88.5343 121.831 87.1749 120.876 85.2753C119.975 83.4976 119.286 82.1905 118.809 81.3714L118.526 81.842C118.12 82.5217 117.642 83.3582 117.095 84.3342L115.699 86.8264C115.681 86.8612 115.663 86.931 115.61 87.0007C115.575 87.0878 115.522 87.1575 115.486 87.2447C115.38 87.4189 115.292 87.5584 115.257 87.6455C115.204 87.7501 115.115 87.8895 115.009 88.0638C114.709 88.6563 114.497 89.0746 114.373 89.3186ZM102.798 93.2225L103.752 93.815L103.31 94.1636C102.409 94.8956 101.402 95.7844 100.271 96.7952L99.9174 97.1089C97.6731 97.6666 95.0753 97.9455 92.1241 97.9455C87.6354 97.9455 84.0303 97.1786 81.2735 95.6624C79.63 94.7736 78.3929 93.6756 77.527 92.3859C76.6434 91.1137 76.2016 89.7194 76.2016 88.2206C76.2016 87.0529 76.449 85.955 76.9792 84.9616C77.474 83.9508 78.2162 83.0445 79.1882 82.208C80.1955 81.3714 81.3442 80.6917 82.6519 80.1689C83.6415 79.768 84.6842 79.4543 85.8328 79.1929C86.9285 78.9489 88.2186 78.7572 89.7207 78.6352C91.1698 78.5307 92.831 78.4609 94.6688 78.4609C95.252 78.4609 96.0296 78.4784 97.0369 78.4958L100.023 78.5829C100.271 78.5829 100.448 78.6004 100.589 78.6004C100.66 78.3215 100.73 78.0601 100.836 77.7987L102.25 77.9381C102.091 78.4784 102.003 79.0709 101.967 79.6809C100.783 79.5415 99.3873 79.4543 97.7791 79.3846C98.0619 79.4543 98.2386 79.4892 98.3093 79.5066L99.4226 79.7158C100.342 79.9249 101.19 80.1689 101.95 80.4652C101.95 81.1274 101.985 81.7548 102.038 82.3822C102.109 83.0794 102.179 83.7591 102.285 84.3865H100.854C100.748 83.9682 100.642 83.4105 100.589 82.6959L100.483 81.476L100.465 81.1797C99.5463 80.6917 98.4153 80.3257 97.0369 80.0469C95.6408 79.7855 94.2447 79.6635 92.8663 79.6635C90.8163 79.6635 88.9785 80.012 87.335 80.7266C85.6738 81.4411 84.3837 82.4345 83.4648 83.6893C82.5282 84.9616 82.051 86.3558 82.051 87.8721C82.051 89.0223 82.3161 90.1377 82.8463 91.2182C83.3588 92.2814 84.101 93.2399 85.0906 94.1113C85.7622 94.669 86.5221 95.157 87.388 95.5404C88.2539 95.889 89.1729 96.1852 90.1978 96.3944C91.2051 96.6035 92.3008 96.6906 93.5025 96.6906C95.3227 96.6906 96.9839 96.4118 98.4683 95.8541C99.9174 95.279 101.384 94.4076 102.798 93.2225ZM87.0169 96.5861C86.0449 96.1678 85.2673 95.7844 84.6488 95.401C84.101 95.1047 83.5355 94.669 82.9346 94.1287C82.0334 93.2747 81.3442 92.3162 80.8317 91.2357C80.3192 90.1726 80.0718 89.092 80.0718 87.9941C80.0718 85.8853 80.9024 83.9856 82.5812 82.3474C83.076 81.8594 83.5885 81.4411 84.1363 81.0926C84.6311 80.7963 85.3204 80.4477 86.1863 80.0469C85.3027 80.2212 84.5074 80.4652 83.7829 80.7789C83.0583 81.0926 82.3515 81.5108 81.6269 82.0163C79.3649 83.6719 78.2339 85.6936 78.2339 88.0986C78.2339 90.8697 79.7007 93.1353 82.6519 94.913C83.3234 95.2964 83.9596 95.6101 84.5781 95.8367C85.232 96.0981 86.0449 96.3421 87.0169 96.5861Z" fill="black"/>
</g>
<mask id="mask11_99_2714" style="mask-type:luminance" maskUnits="userSpaceOnUse" x="0" y="0" width="322" height="142">
<path d="M321.595 0H0V141.393H321.595V0Z" fill="white"/>
</mask>
<g mask="url(#mask11_99_2714)">
<path fill-rule="evenodd" clip-rule="evenodd" d="M190.345 119.817C190.345 119.434 190.469 119.12 190.752 118.859C191.017 118.598 191.335 118.476 191.741 118.476C192.148 118.476 192.483 118.598 192.749 118.859C193.014 119.12 193.155 119.434 193.155 119.817C193.155 120.201 193.014 120.515 192.749 120.776C192.483 121.055 192.148 121.177 191.759 121.177C191.37 121.177 191.052 121.055 190.787 120.776C190.487 120.515 190.345 120.201 190.345 119.817ZM180.254 111.487V114.415C179.883 113.997 179.495 113.7 179.123 113.509C178.752 113.317 178.346 113.23 177.922 113.23C177.127 113.23 176.49 113.491 175.995 114.014C175.501 114.537 175.253 115.216 175.253 116.07C175.253 116.855 175.501 117.517 175.995 118.022C176.49 118.545 177.127 118.807 177.904 118.807C178.328 118.807 178.735 118.702 179.106 118.528C179.477 118.336 179.866 118.022 180.237 117.622V120.549C179.795 120.759 179.371 120.915 178.929 121.02C178.505 121.125 178.063 121.159 177.621 121.159C177.073 121.159 176.561 121.107 176.102 120.968C175.642 120.846 175.2 120.654 174.811 120.393C174.052 119.905 173.486 119.277 173.097 118.545C172.708 117.796 172.496 116.942 172.496 116.018C172.496 115.269 172.62 114.589 172.868 113.962C173.115 113.352 173.504 112.794 173.999 112.289C174.476 111.818 175.024 111.452 175.624 111.225C176.225 110.981 176.897 110.859 177.621 110.859C178.063 110.859 178.505 110.912 178.929 111.016C179.389 111.121 179.83 111.278 180.254 111.487ZM152.121 120.915V111.103H154.771L158.589 116.158C158.659 116.262 158.783 116.454 158.96 116.768C159.119 117.081 159.313 117.447 159.508 117.883C159.455 117.482 159.419 117.116 159.384 116.802C159.366 116.471 159.348 116.192 159.348 115.948V111.103H161.982V120.915H159.348L155.531 115.844C155.461 115.739 155.337 115.548 155.16 115.234C155.001 114.92 154.807 114.554 154.612 114.136C154.665 114.537 154.701 114.903 154.736 115.234C154.754 115.548 154.771 115.826 154.771 116.07V120.915H152.121ZM138.336 120.915V111.103H141.111V120.915H138.336Z" fill="#C0C07F"/>
</g>
<mask id="mask12_99_2714" style="mask-type:luminance" maskUnits="userSpaceOnUse" x="0" y="0" width="322" height="142">
<path d="M321.595 0H0V141.393H321.595V0Z" fill="white"/>
</mask>
<g mask="url(#mask12_99_2714)">
<path fill-rule="evenodd" clip-rule="evenodd" d="M211.375 35.9016C211.887 36.0933 212.329 35.2568 211.516 35.2219C211.269 35.1697 210.898 35.2219 210.385 35.2045L210.968 35.8668C211.127 35.8842 211.269 35.8842 211.375 35.9016Z" fill="#C0C07F"/>
</g>
<mask id="mask13_99_2714" style="mask-type:luminance" maskUnits="userSpaceOnUse" x="0" y="0" width="322" height="142">
<path d="M321.595 0H0V141.393H321.595V0Z" fill="white"/>
</mask>
<g mask="url(#mask13_99_2714)">
<path fill-rule="evenodd" clip-rule="evenodd" d="M218.709 55.5779C215.757 58.9415 213.071 59.7432 210.456 58.7672C213.336 60.998 216.623 59.0809 219.681 55.5605C220.14 55.0028 220.617 54.3754 221.059 53.7305L220.582 53.0334C219.999 53.9571 219.327 54.8459 218.709 55.5779Z" fill="#C0C07F"/>
</g>
<mask id="mask14_99_2714" style="mask-type:luminance" maskUnits="userSpaceOnUse" x="0" y="0" width="322" height="142">
<path d="M321.595 0H0V141.393H321.595V0Z" fill="white"/>
</mask>
<g mask="url(#mask14_99_2714)">
<path fill-rule="evenodd" clip-rule="evenodd" d="M225.053 23.3884C224.788 24.6084 224.558 25.532 223.003 26.9786C221.43 28.1637 220.211 27.972 218.62 27.3271C220.635 29.2268 223.021 28.7388 225.035 25.7237C225.778 24.3121 225.672 23.1793 225.124 21.8896C225.159 22.395 225.124 22.883 225.053 23.3884Z" fill="#C0C07F"/>
</g>
<mask id="mask15_99_2714" style="mask-type:luminance" maskUnits="userSpaceOnUse" x="0" y="0" width="322" height="142">
<path d="M321.595 0H0V141.393H321.595V0Z" fill="white"/>
</mask>
<g mask="url(#mask15_99_2714)">
<path fill-rule="evenodd" clip-rule="evenodd" d="M216.447 25.3752C215.828 23.4407 217.03 20.7916 219.751 19.2754C221.218 18.7177 223.109 18.1251 224.346 20.7393C224.912 22.7435 223.869 25.4623 221.289 26.996C219.769 27.8674 217.313 27.6234 216.447 25.3752Z" fill="#FF004D"/>
</g>
<mask id="mask16_99_2714" style="mask-type:luminance" maskUnits="userSpaceOnUse" x="0" y="0" width="322" height="142">
<path d="M321.595 0H0V141.393H321.595V0Z" fill="white"/>
</mask>
<g mask="url(#mask16_99_2714)">
<path fill-rule="evenodd" clip-rule="evenodd" d="M244.404 31.0915C243.485 30.1678 244.333 28.2856 245.871 28.1636C247.09 27.8325 249.104 28.7039 249.776 30.4467C250.907 33.8103 249.529 37.7839 245.34 40.9906C239.491 45.0339 233.447 42.7857 227.209 48.1884C225.795 49.8092 224.823 51.6043 226.661 53.3122C225.353 51.6217 225.936 49.3386 228.322 47.8747C230.832 46.6722 233.465 46.0447 236.186 48.6938C237.529 49.9138 237.724 51.8831 240.109 52.7022C241.965 52.894 243.555 49.6349 245.075 48.1187C245.27 48.0838 245.464 48.1187 245.658 48.3278C246.118 48.9901 246.86 49.6523 247.055 50.2798C245.658 52.8765 242.442 56.4841 239.756 56.7107C237.494 57.1638 234.79 56.7978 232.687 53.9396C231.927 52.8591 230.62 51.2383 229.33 52.04C229.064 52.2143 228.693 52.7022 229.241 52.7894C230.072 51.7089 231.114 53.6956 231.079 54.3928C231.45 55.6999 229.365 57.5124 227.969 57.3381C226.431 57.4252 224.487 56.885 223.127 54.9156C221.183 51.2034 222.137 47.3344 226.237 43.1517C232.016 38.0453 238.254 39.9624 244.439 36.6336C245.411 35.9714 247.249 34.4203 246.683 32.9389C244.209 35.9539 241.046 35.2917 238.201 35.6228C235.108 36.0411 231.963 34.4551 228.835 38.2893C228.605 38.6727 228.163 39.335 227.651 38.969C227.103 38.4984 226.431 38.3241 226.025 37.5922C226.785 35.0477 229.612 32.5206 229.771 30.011C234.136 27.4839 238.802 30.743 243.202 31.4749C243.608 31.4575 243.997 31.3529 244.404 31.0915Z" fill="#FF004D"/>
</g>
<mask id="mask17_99_2714" style="mask-type:luminance" maskUnits="userSpaceOnUse" x="0" y="0" width="322" height="142">
<path d="M321.595 0H0V141.393H321.595V0Z" fill="white"/>
</mask>
<g mask="url(#mask17_99_2714)">
<path fill-rule="evenodd" clip-rule="evenodd" d="M301.467 27.5537C298.003 27.7279 294.115 29.4185 290.722 33.2526C286.923 37.9756 284.837 42.7857 284.59 47.6482C284.696 48.6241 284.431 50.5761 286.251 50.6632C288.319 50.5761 290.528 47.4739 291.747 45.5394C295.352 39.5616 298.392 33.5315 301.467 27.5537ZM297.137 42.35C295.069 45.7834 293.85 49.5478 289.061 52.9463C286.18 54.4799 283.247 54.9853 280.031 51.9354C276.39 47.2299 277.804 42.0538 280.525 36.9996C282.081 34.49 283.795 32.2592 287.099 29.645C292.224 25.9154 297.42 24.4689 302.774 24.9046C304.082 21.907 306.097 18.9965 305.478 15.9815C304.277 14.5524 302.598 15.3889 301.166 14.7789C301.043 14.5698 301.025 14.3607 301.149 14.1341C301.626 13.4718 301.82 12.6527 302.598 12.1473C305.814 11.7987 308.995 12.1996 312.247 11.0842C313.201 10.8053 314.191 9.02768 315.357 10.1605C315.428 10.2999 315.445 10.4393 315.41 10.5962C313.961 16.0163 312.035 21.3841 309.808 26.752C310.656 27.2748 312.671 27.9196 312.388 29.0873C311.982 29.6102 311.893 30.377 311.151 30.6384C310.462 30.5513 309.561 29.4185 308.73 29.2093C305.92 35.9017 301.944 42.5766 300.071 49.2167C300.159 51.0292 302.386 49.4258 303.587 48.1187C304.736 46.9685 305.266 45.3999 306.433 44.5634C306.592 44.5634 306.751 44.5808 306.91 44.7725C307.405 45.3999 308.2 46.0448 308.377 46.6548C306.821 49.4258 303.358 53.26 300.601 53.1728C299.099 53.3297 296.872 52.6848 295.829 50.5063C294.628 47.8747 295.918 45.034 297.137 42.35Z" fill="#FF004D"/>
</g>
<mask id="mask18_99_2714" style="mask-type:luminance" maskUnits="userSpaceOnUse" x="0" y="0" width="322" height="142">
<path d="M321.595 0H0V141.393H321.595V0Z" fill="white"/>
</mask>
<g mask="url(#mask18_99_2714)">
<path fill-rule="evenodd" clip-rule="evenodd" d="M260.132 40.5201C263.048 37.9408 266.158 37.8885 269.427 34.6295C270.7 33.1307 272.008 31.475 270.735 30.0285C268.173 29.3662 265.027 33.3747 263.101 35.7274C261.917 37.296 260.839 38.9168 260.132 40.5201ZM270.664 48.2756C271.495 47.7005 272.096 45.9925 272.979 46.8291C273.421 47.4391 274.146 48.0665 274.287 48.659C273.58 49.8964 271.937 51.0118 270.788 51.9703C265.769 55.6477 260.909 56.7282 255.626 54.0443C253.894 53.1729 251.667 50.489 251.42 48.2408C250.677 43.0995 252.657 37.9059 258.418 32.3464C263.242 28.3031 268.438 25.8458 273.651 27.1354C276.072 28.1288 276.567 30.6385 276.319 32.5207C276.196 34.5946 274.234 37.3657 271.884 38.8296C267.678 41.287 263.26 40.555 259.001 45.8705C258.047 47.7005 257.569 49.7396 260.185 51.6218C263.472 53.4343 267.148 51.3429 270.664 48.2756Z" fill="#FF004D"/>
</g>
<mask id="mask19_99_2714" style="mask-type:luminance" maskUnits="userSpaceOnUse" x="0" y="0" width="322" height="142">
<path d="M321.595 0H0V141.393H321.595V0Z" fill="white"/>
</mask>
<g mask="url(#mask19_99_2714)">
<path fill-rule="evenodd" clip-rule="evenodd" d="M131.109 38.1674C127.61 37.8711 123.245 40.8164 120.311 45.0514C117.625 49.2516 115.663 53.4866 116.299 57.8262C116.388 59.1681 118.65 60.9283 120.276 60.7889C123.651 60.9806 127.026 58.4187 130.508 55.09C130.702 55.0725 130.897 55.09 131.091 55.2991C131.533 55.9091 132.257 56.5191 132.399 57.1116C132.399 57.251 132.363 57.3905 132.222 57.5473C125.931 63.8737 119.781 65.7036 113.154 62.2529C108.63 59.0287 108.913 54.7065 109.867 50.8375C110.839 47.7005 112.624 44.4589 116.317 41.0604C122.043 36.2503 128.228 33.6884 134.537 35.8494C136.993 37.0345 137.93 39.6662 135.456 41.5484C133.742 42.6464 131.444 43.0995 129.96 40.7293C129.606 39.9276 130.066 38.6728 131.109 38.1674Z" fill="#FF004D"/>
</g>
<mask id="mask20_99_2714" style="mask-type:luminance" maskUnits="userSpaceOnUse" x="0" y="0" width="322" height="142">
<path d="M321.595 0H0V141.393H321.595V0Z" fill="white"/>
</mask>
<g mask="url(#mask20_99_2714)">
<path fill-rule="evenodd" clip-rule="evenodd" d="M146.731 29.5579C146.112 27.6234 147.314 24.9743 150.035 23.4755C151.502 22.9004 153.393 22.3078 154.63 24.9395C155.196 26.9263 154.171 29.6625 151.573 31.1961C150.053 32.0327 147.579 31.8061 146.731 29.5579Z" fill="#FF004D"/>
</g>
<mask id="mask21_99_2714" style="mask-type:luminance" maskUnits="userSpaceOnUse" x="0" y="0" width="322" height="142">
<path d="M321.595 0H0V141.393H321.595V0Z" fill="white"/>
</mask>
<g mask="url(#mask21_99_2714)">
<path fill-rule="evenodd" clip-rule="evenodd" d="M197.926 53.8177C198.863 52.894 199.305 51.4475 200.524 50.9944C201.143 51.3778 202.168 52.3363 202.344 52.9812C201.037 55.0028 199.093 57.6867 196.301 59.1507C194.039 60.0918 191.299 60.3009 189.179 57.4602C185.309 49.8964 192.342 41.9493 195.806 34.2809C197.697 30.2551 200.135 26.1769 199.694 22.0813C198.386 20.8962 196.76 21.8373 195.311 21.1751C195.17 20.9659 195.17 20.7394 195.329 20.5128C195.876 19.8331 196.177 19.0488 196.972 18.4911C200.065 18.1949 203.122 18.4389 206.232 17.6372C207.116 17.55 207.805 15.4935 208.848 16.6961C209.095 16.8529 209.166 17.0969 209.113 17.3235C207.01 27.7977 201.16 38.4462 196.035 48.8333C194.993 51.3429 193.296 53.7829 194.109 56.3099C195.346 56.7456 196.901 54.968 197.926 53.8177Z" fill="#FF004D"/>
</g>
<mask id="mask22_99_2714" style="mask-type:luminance" maskUnits="userSpaceOnUse" x="0" y="0" width="322" height="142">
<path d="M321.595 0H0V141.393H321.595V0Z" fill="white"/>
</mask>
<g mask="url(#mask22_99_2714)">
<path fill-rule="evenodd" clip-rule="evenodd" d="M179.936 39.2653C178.788 38.3068 179.901 36.4768 181.368 36.3722C177.816 34.3332 173.999 35.3614 170.111 37.4528C167.389 39.0213 164.632 42.2629 163.307 44.79C161.275 48.9378 159.066 53.1031 160.214 57.3381C162.777 60.1092 166.47 54.3231 168.22 51.3081C170.499 47.4913 172.249 43.6572 174.299 39.7881C176.172 39.5267 178.063 39.6487 179.936 39.2653ZM171.56 52.0226C169.987 54.7414 168.467 57.7216 164.685 60.3358C161.61 62.0786 158.288 62.6711 155.089 59.0112C152.05 54.1837 153.199 49.0947 156.097 43.9186C157.387 41.7749 159.737 39.1782 161.929 37.5573C167.99 33.2352 174.105 31.8584 180.449 32.6949C182.11 33.0783 184.284 33.636 185.521 35.6403C186.422 37.1391 186.086 39.6313 183.7 40.5201C183.329 40.7815 182.958 40.189 182.587 41.0952C179.919 46.3411 176.614 51.5695 175.465 56.7979C175.995 58.2967 177.727 57.3207 178.876 55.909C180.078 54.5845 180.767 52.9463 182.075 51.8657C182.251 51.8657 182.428 51.9006 182.605 52.1097C183.047 52.7894 183.771 53.4691 183.948 54.114C182.675 56.1182 180.785 58.837 178.222 60.1615C176.101 61.12 173.733 61.2594 171.595 58.4187C170.287 56.3622 170.8 54.1837 171.56 52.0226Z" fill="#FF004D"/>
</g>
<mask id="mask23_99_2714" style="mask-type:luminance" maskUnits="userSpaceOnUse" x="0" y="0" width="322" height="142">
<path d="M321.595 0H0V141.393H321.595V0Z" fill="white"/>
</mask>
<g mask="url(#mask23_99_2714)">
<path fill-rule="evenodd" clip-rule="evenodd" d="M91.6293 50.6458C94.5452 48.0664 97.6555 48.0141 100.925 44.7377C102.197 43.2563 103.505 41.6006 102.233 40.1541C99.6701 39.4918 96.5245 43.4829 94.5982 45.8531C93.4142 47.4216 92.3362 49.025 91.6293 50.6458ZM102.162 58.4012C102.992 57.8261 103.593 56.1007 104.477 56.9373C104.919 57.5473 105.643 58.1747 105.785 58.7672C105.078 60.022 103.434 61.1374 102.286 62.0785C97.2667 65.7733 92.4069 66.8364 87.123 64.1699C85.3911 63.2811 83.1645 60.5972 82.917 58.3664C82.1748 53.2251 84.1541 48.0141 89.9328 42.472C94.7573 38.4113 99.9529 35.9714 105.166 37.2436C107.587 38.237 108.082 40.7641 107.835 42.6463C107.711 44.7202 105.749 47.4913 103.399 48.9553C99.193 51.4126 94.775 50.6806 90.516 55.9962C89.5617 57.8087 89.0846 59.8652 91.7 61.7474C94.9693 63.5425 98.6628 61.4686 102.162 58.4012Z" fill="#FF004D"/>
</g>
<mask id="mask24_99_2714" style="mask-type:luminance" maskUnits="userSpaceOnUse" x="0" y="0" width="322" height="142">
<path d="M321.595 0H0V141.393H321.595V0Z" fill="white"/>
</mask>
<g mask="url(#mask24_99_2714)">
<path fill-rule="evenodd" clip-rule="evenodd" d="M73.5155 43.9361C73.4448 43.2215 73.4095 41.3916 71.8897 41.7576C69.5393 42.4547 67.1536 45.6614 65.8105 47.7876C62.8593 52.8941 60.2615 58.0179 60.3675 63.194C61.1805 65.2505 63.3188 64.7625 64.8562 63.2986C70.3169 57.7739 72.2431 52.3189 73.3565 46.6548C73.4802 45.766 73.5685 44.8423 73.5155 43.9361ZM61.5339 49.0425C63.1244 46.2017 64.8209 42.9252 68.3199 40.4679C71.6069 38.4811 74.9646 37.174 78.605 40.8164C80.7257 43.8489 80.2486 47.108 79.7184 50.2624C78.6757 54.7763 76.6435 59.3598 71.2535 63.8737C67.3833 66.7319 63.3188 68.6315 59.1482 66.7842C57.2573 65.5991 56.9922 63.8911 56.9568 62.3923C55.5431 66.2788 53.5462 70.1652 52.7332 74.0168C52.3798 74.9753 54.3414 75.3413 55.331 75.3065C55.8435 75.3239 57.0982 75.2019 56.8155 76.1082C56.4974 76.8576 56.409 77.6244 55.8435 78.3738C52.4328 78.7921 49.0221 78.6178 45.5761 79.2626C44.7278 79.4021 43.9149 80.4826 43.0843 79.5415C42.5365 78.9664 43.1904 78.3389 43.2964 77.7464C47.0252 67.6381 51.6376 57.5125 55.9849 47.4565C56.1793 46.3411 57.4517 44.5286 55.2957 44.0755C54.306 43.7095 52.8923 44.8075 52.3091 43.4132C52.6626 42.6464 52.8393 41.8447 53.5462 41.1301C56.3207 40.8339 59.0952 41.0256 61.8873 40.3807C62.7179 40.2413 63.4601 38.5508 64.3968 38.8296C64.9092 38.9516 65.6868 39.6139 65.1213 40.3633C64.0256 43.2564 62.8063 46.1494 61.5339 49.0425Z" fill="#FF004D"/>
</g>
<mask id="mask25_99_2714" style="mask-type:luminance" maskUnits="userSpaceOnUse" x="0" y="0" width="322" height="142">
<path d="M321.595 0H0V141.393H321.595V0Z" fill="white"/>
</mask>
<g mask="url(#mask25_99_2714)">
<path fill-rule="evenodd" clip-rule="evenodd" d="M31.8095 56.2054C25.1295 57.7739 18.4495 57.9656 11.6635 62.4794C7.45752 65.6688 5.42524 69.5901 9.36609 73.3371C14.8621 76.7356 20.6938 75.3065 26.4903 70.8623C30.2721 67.7427 32.0923 64.1874 32.3927 60.6495C32.4987 59.1855 32.3044 57.6867 31.8095 56.2054ZM30.2191 52.3712C27.1618 46.8814 24.1752 41.5658 27.0911 35.9366C28.0101 33.9672 29.3001 31.9978 31.8095 29.9065C37.6413 25.5321 43.9149 23.8067 50.2944 26.1769C52.203 26.9263 54.0056 29.4534 54.1293 31.2659C54.5357 34.1066 54.1823 36.9823 50.9306 40.0844C47.1135 42.9601 43.1196 43.8489 38.896 41.2696C36.3159 38.7076 36.9167 35.9192 39.5322 32.9912C41.7235 31.0742 44.3213 29.8542 46.548 32.4161C47.1135 33.5141 47.0251 35.6577 44.6748 35.9889C44.0386 35.9192 44.2153 34.7515 43.4024 35.2046C41.8826 36.0586 40.4511 38.1325 42.6955 39.1433C44.5157 39.5965 46.9014 38.2894 48.4742 35.8494C49.6583 33.8104 50.5949 31.5447 47.9971 29.4359C43.8442 27.7628 39.1964 28.8085 34.9375 33.4967C32.4987 36.7557 32.2337 40.311 34.9375 43.7792C36.2275 45.7486 37.606 47.6133 38.7546 49.5653C39.7973 48.9727 41.9002 47.4739 39.5852 46.2191C39.3378 44.9991 41.3171 43.7792 42.3774 44.0057C43.6851 43.7792 45.6997 45.8705 45.1696 47.5262C45.1872 49.3387 42.7662 51.8135 40.2568 53.0335C41.9179 59.5167 40.7162 65.965 32.269 73.0582C25.2002 78.6526 17.937 80.2212 10.4794 78.4261C8.19974 77.7289 5.49592 76.5264 3.35761 73.6682C0.406387 69.1544 1.25464 64.4139 6.41487 59.3075C13.9962 52.9637 22.2667 53.9223 30.2191 52.3712Z" fill="#FF004D"/>
</g>
<mask id="mask26_99_2714" style="mask-type:luminance" maskUnits="userSpaceOnUse" x="0" y="0" width="322" height="142">
<path d="M321.595 0H0V141.393H321.595V0Z" fill="white"/>
</mask>
<g mask="url(#mask26_99_2714)">
<path fill-rule="evenodd" clip-rule="evenodd" d="M217.03 25.2009C217.878 27.2225 220.069 27.2923 221.66 26.0723C223.639 24.2946 224.823 22.2904 223.18 19.9551C221.483 18.6828 219.009 19.7459 217.454 22.3427C216.906 23.3361 216.747 24.1901 217.03 25.2009Z" fill="#C7AE39"/>
</g>
<mask id="mask27_99_2714" style="mask-type:luminance" maskUnits="userSpaceOnUse" x="0" y="0" width="322" height="142">
<path d="M321.595 0H0V141.393H321.595V0Z" fill="white"/>
</mask>
<g mask="url(#mask27_99_2714)">
<path fill-rule="evenodd" clip-rule="evenodd" d="M221.625 34.2286C220.069 38.0628 218.956 40.2587 217.489 43.1169C216.941 44.18 216.288 45.4348 215.581 46.829C214.874 48.2233 214.114 49.7744 213.637 50.8375C212.859 52.8243 212.47 53.3471 212.983 54.3231C213.884 54.5148 213.548 53.4865 213.796 53.0508C214.238 51.5346 214.45 51.1338 215.104 49.7221C216.623 46.5676 219.416 41.3392 220.847 38.0453C221.589 36.3897 222.384 34.3157 223.215 32.3115L222.703 31.5098C222.349 32.4684 221.978 33.3921 221.625 34.2286Z" fill="#C0C07F"/>
</g>
<mask id="mask28_99_2714" style="mask-type:luminance" maskUnits="userSpaceOnUse" x="0" y="0" width="322" height="142">
<path d="M321.595 0H0V141.393H321.595V0Z" fill="white"/>
</mask>
<g mask="url(#mask28_99_2714)">
<path fill-rule="evenodd" clip-rule="evenodd" d="M212.311 34.6991C211.145 34.3506 209.979 34.9606 208.795 34.2809C208.706 34.1066 208.689 33.9323 208.795 33.7406C209.183 33.0783 209.289 32.3638 209.979 31.7364C212.965 31.4053 215.916 31.6841 218.956 30.8476C219.857 30.7256 220.741 28.6691 221.801 29.7147C222.119 29.8367 222.243 30.2027 222.137 30.4641C219.416 37.8885 215.015 45.3128 212.029 52.6674C211.958 53.504 211.11 55.3339 212.7 55.1945C214.803 54.6542 216.535 51.552 218.09 49.8092C218.302 49.757 218.514 49.7744 218.726 50.0184C219.203 50.6981 219.946 51.3952 220.158 52.0574C219.097 53.9571 217.207 56.5713 214.556 57.8261C212.294 58.7149 209.82 59.0461 207.505 56.3622C203.334 49.6175 210.155 42.3849 212.576 35.5705C212.594 35.2743 212.665 34.9954 212.311 34.6991Z" fill="#FF004D"/>
</g>
<mask id="mask29_99_2714" style="mask-type:luminance" maskUnits="userSpaceOnUse" x="0" y="0" width="322" height="142">
<path d="M321.595 0H0V141.393H321.595V0Z" fill="white"/>
</mask>
<g mask="url(#mask29_99_2714)">
<path fill-rule="evenodd" clip-rule="evenodd" d="M210.226 33.9846C211.304 33.9498 213.354 33.9323 213.195 35.2917C213.266 36.7557 211.516 39.4047 210.421 41.6007C209.908 42.5766 209.396 43.57 209.007 44.4066C207.081 48.8333 205.826 51.4126 207.646 55.4908C210.226 59.0461 213.796 58.4361 216.871 55.4385C217.737 54.5671 218.726 53.3297 219.575 52.0749L218.249 50.3844C217.631 51.3255 216.959 52.2318 216.394 52.9463C214.627 55.0377 213.16 56.3971 211.605 55.5257C210.792 54.358 211.304 53.3471 211.605 51.9355C212.046 50.7852 212.188 50.5238 212.877 49.0599C213.354 48.0839 214.043 46.6897 214.662 45.4523C215.28 44.2323 215.811 43.1692 216.288 42.2455C217.861 39.0736 218.497 37.6271 219.663 34.9257C220.388 33.2178 221.006 31.7364 221.589 30.255L221.024 30.0285C218.974 32.1373 217.719 31.7016 215.864 31.9456L210.191 32.2941L209.325 34.0021L210.226 33.9846Z" fill="#C7AE39"/>
</g>
<mask id="mask30_99_2714" style="mask-type:luminance" maskUnits="userSpaceOnUse" x="0" y="0" width="322" height="142">
<path d="M321.595 0H0V141.393H321.595V0Z" fill="white"/>
</mask>
<g mask="url(#mask30_99_2714)">
<path fill-rule="evenodd" clip-rule="evenodd" d="M230.178 39.0038C230.584 38.2544 231.256 37.6445 231.874 37.4527C233.235 36.9125 235.179 36.9648 236.734 36.9473C238.272 36.9648 239.774 37.017 240.958 36.9299C241.947 36.8079 242.972 36.8602 243.944 35.588C242.813 36.0934 241.293 36.3722 240.551 36.3374C240.251 36.3548 238.466 36.3374 236.982 36.3199C235.055 36.3199 233.801 36.2328 232.493 36.5116C230.973 36.6859 229.436 38.2196 229.153 39.7358L229.648 40.1541C229.789 39.7358 229.983 39.3175 230.178 39.0038Z" fill="#C0C07F"/>
</g>
<mask id="mask31_99_2714" style="mask-type:luminance" maskUnits="userSpaceOnUse" x="0" y="0" width="322" height="142">
<path d="M321.595 0H0V141.393H321.595V0Z" fill="white"/>
</mask>
<g mask="url(#mask31_99_2714)">
<path fill-rule="evenodd" clip-rule="evenodd" d="M231.415 55.8393C230.39 58.5581 227.88 58.1398 226.113 57.495C227.827 58.6104 229.577 59.2901 231.556 57.1639C232.033 56.3447 231.892 55.7348 231.574 54.9331C231.556 55.2468 231.503 55.5605 231.415 55.8393Z" fill="#C0C07F"/>
</g>
<mask id="mask32_99_2714" style="mask-type:luminance" maskUnits="userSpaceOnUse" x="0" y="0" width="322" height="142">
<path d="M321.595 0H0V141.393H321.595V0Z" fill="white"/>
</mask>
<g mask="url(#mask32_99_2714)">
<path fill-rule="evenodd" clip-rule="evenodd" d="M245.005 54.2533C241.753 57.4601 238.961 58.192 235.974 56.6061C238.554 59.046 240.887 58.0526 243.29 56.6758C243.98 56.2401 244.722 55.6476 245.517 54.8459C246.312 54.0442 247.178 52.9985 247.938 51.918L247.408 51.2906C246.648 52.3885 245.782 53.4342 245.005 54.2533Z" fill="#C0C07F"/>
</g>
<mask id="mask33_99_2714" style="mask-type:luminance" maskUnits="userSpaceOnUse" x="0" y="0" width="322" height="142">
<path d="M321.595 0H0V141.393H321.595V0Z" fill="white"/>
</mask>
<g mask="url(#mask33_99_2714)">
<path fill-rule="evenodd" clip-rule="evenodd" d="M250.624 32.5033C250.995 35.3789 250.077 37.5574 247.125 40.5376C243.785 43.3958 241.824 43.57 238.36 44.4066C237.529 44.5809 236.77 44.7203 236.151 44.8423C234.066 45.278 233.023 45.4697 231.592 46.3237C233.253 46.4108 234.702 45.6788 236.328 45.4523C240.516 44.6506 245.712 44.0232 249.564 39.0213C251.367 36.7383 252.038 34.0195 250.518 31.8933C250.554 32.1198 250.589 32.329 250.624 32.5033Z" fill="#C0C07F"/>
</g>
<mask id="mask34_99_2714" style="mask-type:luminance" maskUnits="userSpaceOnUse" x="0" y="0" width="322" height="142">
<path d="M321.595 0H0V141.393H321.595V0Z" fill="white"/>
</mask>
<g mask="url(#mask34_99_2714)">
<path fill-rule="evenodd" clip-rule="evenodd" d="M228.729 37.4528C230.637 35.2743 232.245 35.3266 234.119 35.1349C234.172 35.1349 236.381 35.0651 237.936 35.0303C238.855 34.9954 240.162 34.9606 242 34.7166C243.997 34.4552 245.694 33.758 246.648 31.8932C248.345 33.8103 247.108 35.3963 244.792 37.1216C243.343 38.0628 241.965 38.4462 240.587 38.7773C240.092 38.8993 239.509 39.0039 238.554 39.1781C237.6 39.3524 236.275 39.5964 235.409 39.7533C234.154 39.9973 233.907 40.0495 233.359 40.189C230.584 40.8687 227.014 42.5243 224.965 45.4697C223.056 48.3976 221.289 52.0574 224.417 55.5082C226.096 56.8502 227.721 57.3904 229.842 56.0136C230.708 55.1771 230.743 54.0442 229.789 53.0683C229.365 53.9397 227.598 53.0508 228.799 51.7089C229.807 50.7852 231.733 51.3778 232.369 52.5454C233.005 53.5911 235.638 56.4493 237.441 56.2576C239.473 56.5364 242.601 55.5082 244.598 52.772C245.199 52.0749 245.853 51.1686 246.454 50.2972L245.181 48.6938C244.192 50.0881 243.467 51.4823 241.735 52.8069C239.279 54.3928 237.989 51.9703 235.356 48.7113C233.253 47.0208 231.432 47.2299 228.994 48.1884C228.022 48.5544 226.325 50.3495 226.608 51.674C226.59 52.3886 227.28 53.2948 228.145 53.6783C227.227 54.2185 226.219 54.1662 225.477 52.894C224.699 50.9595 225.088 49.0424 227.827 46.8465C229.436 45.5394 231.344 44.8597 232.864 44.4066C235.656 43.448 241.293 43.1866 244.987 40.5201C245.764 39.9798 247.32 38.5333 248.168 37.1914C249.582 34.6992 250.483 32.3987 248.521 29.5927C247.373 28.5819 246.242 28.1288 244.792 29.4359C244.492 29.9936 244.51 30.5164 245.305 31.109C243.997 32.4335 242.53 32.1024 241.382 31.7712C238.537 30.6559 234.013 28.8608 231.326 29.9936C230.973 30.0982 230.602 30.2376 230.248 30.377C230.213 31.9978 229.754 32.0675 229.011 33.3746C228.251 34.5946 227.244 36.2677 226.626 37.5051L228.022 38.481C228.234 38.1325 228.481 37.7665 228.729 37.4528Z" fill="#C7AE39"/>
</g>
<mask id="mask35_99_2714" style="mask-type:luminance" maskUnits="userSpaceOnUse" x="0" y="0" width="322" height="142">
<path d="M321.595 0H0V141.393H321.595V0Z" fill="white"/>
</mask>
<g mask="url(#mask35_99_2714)">
<path fill-rule="evenodd" clip-rule="evenodd" d="M264.355 36.6511C265.363 35.4486 266.405 34.2635 267.165 33.4618C268.879 31.6842 269.18 31.719 270.435 30.9522C270.47 30.0285 269.533 30.6211 269.056 30.8476C268.314 31.231 266.759 32.6253 265.787 33.7755C264.797 34.8909 263.383 36.7034 262.058 38.4985L263.755 37.4354L264.355 36.6511Z" fill="#C0C07F"/>
</g>
<mask id="mask36_99_2714" style="mask-type:luminance" maskUnits="userSpaceOnUse" x="0" y="0" width="322" height="142">
<path d="M321.595 0H0V141.393H321.595V0Z" fill="white"/>
</mask>
<g mask="url(#mask36_99_2714)">
<path fill-rule="evenodd" clip-rule="evenodd" d="M270.47 53.1206C265.911 56.1356 261.51 56.7282 256.933 55.2991C261.758 58.0178 266.299 56.7107 270.965 53.748C272.361 52.8069 273.792 51.552 275.065 50.1752L274.482 49.6175C273.245 50.9595 271.848 52.1794 270.47 53.1206Z" fill="#C0C07F"/>
</g>
<mask id="mask37_99_2714" style="mask-type:luminance" maskUnits="userSpaceOnUse" x="0" y="0" width="322" height="142">
<path d="M321.595 0H0V141.393H321.595V0Z" fill="white"/>
</mask>
<g mask="url(#mask37_99_2714)">
<path fill-rule="evenodd" clip-rule="evenodd" d="M276.867 33.5314C276.478 35.3962 275.63 37.1042 273.474 38.5856C270.823 40.5201 266.918 41.4437 263.295 43.0123C262.376 43.5177 261.404 44.0405 260.291 45.3128C258.842 47.1253 258.4 49.4606 260.591 50.9246C259.584 48.5718 259.602 46.6199 262.712 44.3194C263.754 43.6222 265.522 42.8903 267.271 42.3326C268.438 41.9666 269.586 41.5309 270.523 41.1126C272.149 40.3806 273.28 39.7358 274.446 38.7424C277.38 36.2676 278.405 33.3572 277.062 30.9695C277.115 31.8758 277.026 32.7472 276.867 33.5314Z" fill="#C0C07F"/>
</g>
<mask id="mask38_99_2714" style="mask-type:luminance" maskUnits="userSpaceOnUse" x="0" y="0" width="322" height="142">
<path d="M321.595 0H0V141.393H321.595V0Z" fill="white"/>
</mask>
<g mask="url(#mask38_99_2714)">
<path fill-rule="evenodd" clip-rule="evenodd" d="M297.667 29.2093C294.08 30.4467 290.722 33.9497 288.601 37.7316C286.923 41.0081 285.102 44.5459 285.739 48.7809C285.88 49.2166 286.057 49.5478 286.534 49.9138C286.498 49.6001 286.463 49.2864 286.428 49.1121C286.392 48.8855 286.41 48.8681 286.392 48.8332C286.392 44.8422 287.718 40.2935 291.182 35.4311C292.984 32.8866 295.759 30.9172 297.844 30.0284C298.339 29.8193 298.869 29.6101 299.417 29.401L299.823 28.5122C299.063 28.7039 298.339 28.9479 297.667 29.2093Z" fill="#C0C07F"/>
</g>
<mask id="mask39_99_2714" style="mask-type:luminance" maskUnits="userSpaceOnUse" x="0" y="0" width="322" height="142">
<path d="M321.595 0H0V141.393H321.595V0Z" fill="white"/>
</mask>
<g mask="url(#mask39_99_2714)">
<path fill-rule="evenodd" clip-rule="evenodd" d="M312.777 29.8192L312.035 31.0217L312.618 31.7014L313.36 30.4815L312.777 29.8192Z" fill="#C0C07F"/>
</g>
<mask id="mask40_99_2714" style="mask-type:luminance" maskUnits="userSpaceOnUse" x="0" y="0" width="322" height="142">
<path d="M321.595 0H0V141.393H321.595V0Z" fill="white"/>
</mask>
<g mask="url(#mask40_99_2714)">
<path fill-rule="evenodd" clip-rule="evenodd" d="M304.365 15.8071C303.817 15.3366 303.269 15.3714 302.615 15.4237L303.252 16.2254L304.665 16.1383C304.577 16.0163 304.471 15.9117 304.365 15.8071Z" fill="#C0C07F"/>
</g>
<mask id="mask41_99_2714" style="mask-type:luminance" maskUnits="userSpaceOnUse" x="0" y="0" width="322" height="142">
<path d="M321.595 0H0V141.393H321.595V0Z" fill="white"/>
</mask>
<g mask="url(#mask41_99_2714)">
<path fill-rule="evenodd" clip-rule="evenodd" d="M293.178 50.4367C291.128 53.1729 288.089 54.8808 285.032 54.5845C284.254 54.4974 283.317 54.2708 282.398 53.9223C285.774 56.2054 289.131 55.5082 292.524 52.3712C293.231 51.6741 293.991 50.8027 294.663 49.879L294.574 48.4673C294.133 49.1644 293.638 49.8441 293.178 50.4367Z" fill="#C0C07F"/>
</g>
<mask id="mask42_99_2714" style="mask-type:luminance" maskUnits="userSpaceOnUse" x="0" y="0" width="322" height="142">
<path d="M321.595 0H0V141.393H321.595V0Z" fill="white"/>
</mask>
<g mask="url(#mask42_99_2714)">
<path fill-rule="evenodd" clip-rule="evenodd" d="M307.351 49.9835C304.913 53.2948 301.696 54.3231 298.851 53.2251C302.668 55.9613 306.397 52.8765 309.384 48.6764L308.854 47.9095C308.359 48.659 307.811 49.3909 307.351 49.9835Z" fill="#C0C07F"/>
</g>
<mask id="mask43_99_2714" style="mask-type:luminance" maskUnits="userSpaceOnUse" x="0" y="0" width="322" height="142">
<path d="M321.595 0H0V141.393H321.595V0Z" fill="white"/>
</mask>
<g mask="url(#mask43_99_2714)">
<path fill-rule="evenodd" clip-rule="evenodd" d="M315.799 12.6876C315.516 13.559 314.615 16.33 313.802 18.7525C313.36 20.0422 312.971 21.1576 312.618 22.0987C311.981 23.8241 311.504 25.044 310.957 26.2988L311.61 26.8565C312.088 25.776 312.529 24.6955 313.024 23.4232C314.208 20.443 315.463 16.4869 316.718 12.6004L316.046 11.8162C316.011 12.0253 315.94 12.2519 315.799 12.6876Z" fill="#C0C07F"/>
</g>
<mask id="mask44_99_2714" style="mask-type:luminance" maskUnits="userSpaceOnUse" x="0" y="0" width="322" height="142">
<path d="M321.595 0H0V141.393H321.595V0Z" fill="white"/>
</mask>
<g mask="url(#mask44_99_2714)">
<path fill-rule="evenodd" clip-rule="evenodd" d="M302.81 43.9883C302.598 44.6854 301.785 46.2888 301.272 47.7528C300.742 48.781 301.255 49.7396 301.767 48.8856C301.856 48.7462 301.962 48.5022 302.05 48.2756C302.191 47.8922 302.951 46.2191 303.358 45.1734C305.549 40.311 307.758 35.6577 309.949 30.8999L309.101 30.4293L302.81 43.9883Z" fill="#C0C07F"/>
</g>
<mask id="mask45_99_2714" style="mask-type:luminance" maskUnits="userSpaceOnUse" x="0" y="0" width="322" height="142">
<path d="M321.595 0H0V141.393H321.595V0Z" fill="white"/>
</mask>
<g mask="url(#mask45_99_2714)">
<path fill-rule="evenodd" clip-rule="evenodd" d="M303.269 14.4827C304.33 14.6047 304.824 14.5698 305.726 15.3541C306.556 16.4346 306.309 17.0098 306.132 18.1252C306.008 18.7351 305.779 19.5543 305.266 20.8265C304.754 22.1162 303.976 23.859 303.11 25.5669C297.508 24.9395 291.553 26.5952 285.986 31.3182C281.586 35.3789 279.306 39.4745 278.581 44.1452C278.369 46.4457 278.246 49.1993 280.614 51.7264C283.123 54.1489 286.428 54.0269 289.202 52.1621C290.757 51.0815 291.959 49.5653 292.878 48.293C293.638 47.2125 294.08 46.5328 294.486 45.8183C294.734 45.3826 295.069 44.8074 295.617 43.7966C296.183 42.8032 296.96 41.3741 297.473 40.4156C298.551 38.4288 298.763 38.0279 299.434 36.7383C301.025 33.7058 302.668 30.4293 304.206 27.2749L305.231 27.4666C303.04 32.1199 299.947 37.6794 297.597 42.6987C297.19 43.6049 296.748 44.5809 296.43 45.5046C295.829 47.4914 295.246 49.4782 297.314 51.5869C299.258 53.26 302.068 52.8243 304.082 50.9421C305.814 49.4084 306.592 48.2582 307.723 46.7071L306.397 45.1734C305.213 47.1079 303.093 50.245 300.795 50.611C299.682 50.8724 299.222 49.4782 299.452 48.9379C299.54 48.1188 300.265 46.254 300.76 45.0863C301.838 42.4895 303.799 38.4114 305.443 34.8735C305.496 34.7689 305.549 34.6643 305.655 34.4378C305.761 34.2112 305.92 33.8626 306.291 33.0435C306.768 31.9804 307.599 30.1331 308.359 28.4948C309.278 28.8085 310.144 29.1745 311.027 30.0808L311.805 28.7911C310.868 28.0243 309.879 27.4317 308.977 27.0657C311.275 21.5759 313.36 15.7898 314.774 10.4568C314.102 9.96885 313.448 11.2411 312.777 11.4677C309.896 12.827 306.114 12.3739 302.668 12.7399L301.608 14.4653C302.227 14.4304 302.81 14.4478 303.269 14.4827ZM301.979 27.8326L302.439 26.9612C299.717 26.8566 298.268 27.3794 295.988 28.4077C293.461 29.6102 291.04 31.719 289.379 33.9672C288.054 35.6926 286.923 37.7491 285.986 39.8753C285.474 41.0256 285.032 42.2281 284.714 43.2738C284.024 46.132 283.3 47.9271 284.837 50.6981C286.499 52.0226 288.23 50.8027 289.874 49.0599C290.899 47.9619 292.083 46.2017 293.108 44.4415C293.726 43.4306 294.098 42.7858 294.769 41.531C295.582 40.0322 297.296 36.808 298.834 33.9498C300.159 31.4227 301.06 29.6451 301.979 27.8326Z" fill="#C7AE39"/>
</g>
<mask id="mask46_99_2714" style="mask-type:luminance" maskUnits="userSpaceOnUse" x="0" y="0" width="322" height="142">
<path d="M321.595 0H0V141.393H321.595V0Z" fill="white"/>
</mask>
<g mask="url(#mask46_99_2714)">
<path fill-rule="evenodd" clip-rule="evenodd" d="M271.089 48.6938C267.642 51.7263 263.295 54.5671 259.337 51.7437C257.145 49.757 257.304 47.805 258.488 45.5568C259.372 44.058 261.387 42.5243 263.171 41.6704C263.931 41.3044 264.78 40.9558 265.663 40.6595C266.617 40.3284 267.554 39.9973 268.279 39.7358C271.124 38.7076 271.954 38.3765 274.004 36.198C275.807 33.88 276.496 31.719 275.065 28.9653C272.82 26.5254 271.053 27.3271 268.614 27.6234C264.815 28.3728 259.496 31.231 255.926 35.9191C252.639 40.5375 250.006 45.7659 253.363 51.2558C257.128 55.6476 261.422 55.4385 265.911 54.0442C269.021 52.8766 270.841 51.3255 273.704 48.659L272.52 47.195C272.06 47.7179 271.583 48.2233 271.089 48.6938ZM258.736 42.6812C262.306 38.4113 266.087 39.1607 270.399 34.4029C271.583 32.7995 272.838 30.8301 270.929 29.4533C269.586 29.0002 268.473 29.6625 267.148 30.621C266.671 30.987 266.123 31.4575 265.451 32.1372C262.818 34.7166 259.46 39.3524 258.736 42.6812Z" fill="#C7AE39"/>
</g>
<mask id="mask47_99_2714" style="mask-type:luminance" maskUnits="userSpaceOnUse" x="0" y="0" width="322" height="142">
<path d="M321.595 0H0V141.393H321.595V0Z" fill="white"/>
</mask>
<g mask="url(#mask47_99_2714)">
<path fill-rule="evenodd" clip-rule="evenodd" d="M30.2368 57.2161C28.9998 57.4253 27.7804 57.6693 26.7731 57.8784C24.405 58.349 23.7158 58.4884 22.2667 58.8369C21.4538 59.0287 20.3581 59.3075 19.4215 59.5864C15.9932 60.6843 13.0773 61.486 9.98468 64.867C8.05843 67.2895 7.43991 69.7992 9.43685 72.1868C8.60626 69.102 9.01272 66.7841 12.2114 63.8736C14.2966 62.1483 17.0535 61.0155 19.2448 60.3532C20.6762 59.9349 21.5422 59.7258 22.5141 59.4992C23.0796 59.3772 23.8749 59.2029 25.2003 58.9415C26.7731 58.6278 29.0704 58.1573 31.2794 57.7564L31.1204 57.0593L30.2368 57.2161Z" fill="#C0C07F"/>
</g>
<mask id="mask48_99_2714" style="mask-type:luminance" maskUnits="userSpaceOnUse" x="0" y="0" width="322" height="142">
<path d="M321.595 0H0V141.393H321.595V0Z" fill="white"/>
</mask>
<g mask="url(#mask48_99_2714)">
<path fill-rule="evenodd" clip-rule="evenodd" d="M43.2787 37.8187C43.5261 37.4005 43.8972 36.9473 44.4804 36.5116C43.4201 35.7971 41.8473 37.5748 42.9606 38.5333C43.049 38.2893 43.155 38.0627 43.2787 37.8187Z" fill="#C0C07F"/>
</g>
<mask id="mask49_99_2714" style="mask-type:luminance" maskUnits="userSpaceOnUse" x="0" y="0" width="322" height="142">
<path d="M321.595 0H0V141.393H321.595V0Z" fill="white"/>
</mask>
<g mask="url(#mask49_99_2714)">
<path fill-rule="evenodd" clip-rule="evenodd" d="M47.2373 34.5946C47.2019 35.5008 46.2476 36.1457 45.2933 36.076C46.1416 36.5988 47.3079 36.7382 47.8028 35.3091C47.9088 34.6817 47.6614 34.4029 47.3256 33.7406C47.3079 34.0543 47.2726 34.3506 47.2373 34.5946Z" fill="#C0C07F"/>
</g>
<mask id="mask50_99_2714" style="mask-type:luminance" maskUnits="userSpaceOnUse" x="0" y="0" width="322" height="142">
<path d="M321.595 0H0V141.393H321.595V0Z" fill="white"/>
</mask>
<g mask="url(#mask50_99_2714)">
<path fill-rule="evenodd" clip-rule="evenodd" d="M46.7424 29.8542C43.4908 28.9653 39.0197 29.7844 35.4323 34.5597C33.8595 36.9474 33.7888 39.3699 34.7254 41.6006C34.3897 39.0039 34.7608 35.9191 37.9771 32.8518C40.9813 30.3073 44.4097 29.645 47.5907 30.3421C47.3609 30.133 47.0782 29.9936 46.7424 29.8542Z" fill="#C0C07F"/>
</g>
<mask id="mask51_99_2714" style="mask-type:luminance" maskUnits="userSpaceOnUse" x="0" y="0" width="322" height="142">
<path d="M321.595 0H0V141.393H321.595V0Z" fill="white"/>
</mask>
<g mask="url(#mask51_99_2714)">
<path fill-rule="evenodd" clip-rule="evenodd" d="M54.8892 31.9106C55.225 34.8211 54.8539 37.5225 51.7436 40.5375C49.4286 42.5766 46.7071 43.4306 44.0209 43.2388C43.1373 43.1517 42.0593 42.9077 40.9814 42.5243C45.0459 45.1036 48.1385 44.2497 52.1854 41.2172C55.5254 38.237 56.7625 34.6294 54.8009 31.3007C54.8362 31.5098 54.8715 31.7189 54.8892 31.9106Z" fill="#C0C07F"/>
</g>
<mask id="mask52_99_2714" style="mask-type:luminance" maskUnits="userSpaceOnUse" x="0" y="0" width="322" height="142">
<path d="M321.595 0H0V141.393H321.595V0Z" fill="white"/>
</mask>
<g mask="url(#mask52_99_2714)">
<path fill-rule="evenodd" clip-rule="evenodd" d="M45.5406 46.9511C45.8057 48.3628 45.3286 50.245 43.5967 51.7961C42.8191 52.5106 41.7235 53.2078 40.5925 53.748C42.7308 58.9939 41.5468 62.7234 38.5072 67.5684C37.1111 69.7295 34.3366 72.5528 31.9155 74.2434C28.1867 76.9273 24.2812 78.7049 20.3404 79.4369C17.1064 80.0469 14.2082 79.9075 11.9638 79.3498C11.0626 79.1406 9.86086 78.7398 8.67683 78.2692C11.1332 80.012 13.5543 80.5174 15.728 80.5697C20.2167 80.7092 26.5609 79.2103 32.6224 74.8708C35.5029 72.9014 39.2494 68.8058 40.6455 65.8953C42.5187 62.1309 43.3316 58.2619 41.1756 54.4626C41.8825 54.0269 42.5717 53.5563 43.1196 53.1555C45.9471 51.2384 46.5126 48.8507 45.523 46.8465C45.523 46.8814 45.523 46.8988 45.5406 46.9511Z" fill="#C0C07F"/>
</g>
<mask id="mask53_99_2714" style="mask-type:luminance" maskUnits="userSpaceOnUse" x="0" y="0" width="322" height="142">
<path d="M321.595 0H0V141.393H321.595V0Z" fill="white"/>
</mask>
<g mask="url(#mask53_99_2714)">
<path fill-rule="evenodd" clip-rule="evenodd" d="M62.2583 63.4031C61.7812 61.3815 62.3467 60.4752 62.9122 58.4361C63.9902 55.0377 65.457 51.4824 67.9664 47.5785C68.691 46.5328 69.3271 45.4523 70.9883 43.9535C71.3241 43.57 72.7732 43.1692 71.8189 42.6289C71.112 42.5941 70.2284 43.6049 69.4155 44.4414C68.5672 45.3128 67.2595 47.1776 66.2522 48.8507C64.6264 51.6915 63.9018 53.3994 62.8415 56.0834C62.064 58.1921 61.6045 59.447 61.2334 61.7997C61.0036 62.7757 61.6398 63.804 62.4881 64.0654C62.3997 63.8388 62.329 63.5948 62.2583 63.4031Z" fill="#C0C07F"/>
</g>
<mask id="mask54_99_2714" style="mask-type:luminance" maskUnits="userSpaceOnUse" x="0" y="0" width="322" height="142">
<path d="M321.595 0H0V141.393H321.595V0Z" fill="white"/>
</mask>
<g mask="url(#mask54_99_2714)">
<path fill-rule="evenodd" clip-rule="evenodd" d="M55.4018 45.3825C55.5786 44.6505 54.5889 44.5285 53.9527 44.6157L54.5006 45.4348L55.4018 45.3825Z" fill="#C0C07F"/>
</g>
<mask id="mask55_99_2714" style="mask-type:luminance" maskUnits="userSpaceOnUse" x="0" y="0" width="322" height="142">
<path d="M321.595 0H0V141.393H321.595V0Z" fill="white"/>
</mask>
<g mask="url(#mask55_99_2714)">
<path fill-rule="evenodd" clip-rule="evenodd" d="M57.5224 77.0143L56.6388 79.0883L48.4743 79.5763C47.1666 79.646 45.8412 79.8203 44.8516 80.4128L45.3994 80.9879C46.3007 80.5174 47.1136 80.4651 48.2976 80.3605L57.2043 79.8377L58.0172 77.8509L57.5224 77.0143Z" fill="#C0C07F"/>
</g>
<mask id="mask56_99_2714" style="mask-type:luminance" maskUnits="userSpaceOnUse" x="0" y="0" width="322" height="142">
<path d="M321.595 0H0V141.393H321.595V0Z" fill="white"/>
</mask>
<g mask="url(#mask56_99_2714)">
<path fill-rule="evenodd" clip-rule="evenodd" d="M56.5151 66.3659C55.8259 67.9867 55.0484 69.6424 54.2178 71.9428C53.8997 72.9537 53.4932 73.8425 54.1294 74.679C54.4828 73.4068 54.7303 72.762 55.3488 71.2109C55.8436 69.9909 56.5858 68.3353 57.2574 66.7493L56.7979 65.6339L56.5151 66.3659Z" fill="#C0C07F"/>
</g>
<mask id="mask57_99_2714" style="mask-type:luminance" maskUnits="userSpaceOnUse" x="0" y="0" width="322" height="142">
<path d="M321.595 0H0V141.393H321.595V0Z" fill="white"/>
</mask>
<g mask="url(#mask57_99_2714)">
<path fill-rule="evenodd" clip-rule="evenodd" d="M80.6727 44.7376C81.5916 51.0292 79.6831 57.5298 72.0311 64.3964C68.4437 67.2895 63.8843 69.0671 60.5266 67.7426C64.0787 69.6771 66.8532 68.3352 70.3346 66.4181C74.3108 64.1873 78.9055 58.5929 80.4076 54.3405C81.0261 52.772 81.5033 51.0466 81.6447 49.4781C81.8744 47.0381 81.5563 45.6962 80.4606 43.8837C80.5313 44.1625 80.602 44.4588 80.6727 44.7376Z" fill="#C0C07F"/>
</g>
<mask id="mask58_99_2714" style="mask-type:luminance" maskUnits="userSpaceOnUse" x="0" y="0" width="322" height="142">
<path d="M321.595 0H0V141.393H321.595V0Z" fill="white"/>
</mask>
<g mask="url(#mask58_99_2714)">
<path fill-rule="evenodd" clip-rule="evenodd" d="M95.8529 46.7768C96.8602 45.5569 97.9029 44.3892 98.6804 43.5875C100.395 41.8098 100.695 41.8447 101.95 41.0779C101.985 40.1542 101.048 40.7467 100.571 40.9733C99.8291 41.3393 98.274 42.7509 97.302 43.9012C96.3124 45.0166 94.8986 46.8291 93.5732 48.6242L95.2698 47.5611L95.8529 46.7768Z" fill="#C0C07F"/>
</g>
<mask id="mask59_99_2714" style="mask-type:luminance" maskUnits="userSpaceOnUse" x="0" y="0" width="322" height="142">
<path d="M321.595 0H0V141.393H321.595V0Z" fill="white"/>
</mask>
<g mask="url(#mask59_99_2714)">
<path fill-rule="evenodd" clip-rule="evenodd" d="M101.967 63.2288C97.4081 66.2438 93.0254 66.8538 88.4307 65.4247C93.2551 68.1435 97.7968 66.819 102.462 63.8736C103.858 62.9151 105.29 61.6777 106.562 60.3009L105.979 59.7432C104.76 61.0852 103.346 62.3051 101.967 63.2288Z" fill="#C0C07F"/>
</g>
<mask id="mask60_99_2714" style="mask-type:luminance" maskUnits="userSpaceOnUse" x="0" y="0" width="322" height="142">
<path d="M321.595 0H0V141.393H321.595V0Z" fill="white"/>
</mask>
<g mask="url(#mask60_99_2714)">
<path fill-rule="evenodd" clip-rule="evenodd" d="M108.382 43.6571C107.994 45.5219 107.145 47.2124 104.989 48.6938C102.339 50.6457 98.433 51.552 94.8102 53.1379C93.8913 53.6434 92.9193 54.1488 91.806 55.4384C90.3569 57.2509 89.9151 59.5863 92.1064 61.0503C91.0991 58.6975 91.1168 56.7455 94.2271 54.445C95.2697 53.7479 97.0369 53.0159 98.7864 52.4582C99.9528 52.0748 101.084 51.6391 102.038 51.2209C103.664 50.4889 104.795 49.844 105.961 48.8681C108.895 46.3933 109.92 43.4654 108.577 41.0952C108.612 41.984 108.524 42.8728 108.382 43.6571Z" fill="#C0C07F"/>
</g>
<mask id="mask61_99_2714" style="mask-type:luminance" maskUnits="userSpaceOnUse" x="0" y="0" width="322" height="142">
<path d="M321.595 0H0V141.393H321.595V0Z" fill="white"/>
</mask>
<g mask="url(#mask61_99_2714)">
<path fill-rule="evenodd" clip-rule="evenodd" d="M137.223 40.1541C136.516 42.4197 134.272 43.0123 132.469 42.9949C134.237 43.5003 135.474 43.8314 137.312 41.6703C137.859 40.7466 137.736 39.945 137.382 39.0387C137.365 39.4395 137.312 39.8055 137.223 40.1541Z" fill="#C0C07F"/>
</g>
<mask id="mask62_99_2714" style="mask-type:luminance" maskUnits="userSpaceOnUse" x="0" y="0" width="322" height="142">
<path d="M321.595 0H0V141.393H321.595V0Z" fill="white"/>
</mask>
<g mask="url(#mask62_99_2714)">
<path fill-rule="evenodd" clip-rule="evenodd" d="M128.387 61.7649C124.375 64.4488 120.788 65.3376 116.865 64.3791C116.264 64.2048 115.486 63.926 114.727 63.6122C117.89 65.8953 121.283 65.6513 124.605 64.5359C127.115 63.6994 130.278 61.6952 133.264 58.6278L132.681 58.0004C131.338 59.447 129.818 60.7889 128.387 61.7649Z" fill="#C0C07F"/>
</g>
<mask id="mask63_99_2714" style="mask-type:luminance" maskUnits="userSpaceOnUse" x="0" y="0" width="322" height="142">
<path d="M321.595 0H0V141.393H321.595V0Z" fill="white"/>
</mask>
<g mask="url(#mask63_99_2714)">
<path fill-rule="evenodd" clip-rule="evenodd" d="M127.344 39.6662C125.56 40.3807 122.555 43.0298 121.265 45.034C119.604 47.4042 118.473 49.8093 117.607 52.6849C117.095 55.3165 116.087 57.373 118.508 59.6561C118.721 59.7955 118.968 59.9175 119.215 60.0221C116.9 56.3273 118.014 54.6368 119.039 51.1686C120.17 48.3279 121.301 45.644 124.217 42.7509C125.736 41.2695 127.468 40.2239 129.076 39.701L129.536 38.8993C128.811 39.0736 128.087 39.3176 127.344 39.6662Z" fill="#C0C07F"/>
</g>
<mask id="mask64_99_2714" style="mask-type:luminance" maskUnits="userSpaceOnUse" x="0" y="0" width="322" height="142">
<path d="M321.595 0H0V141.393H321.595V0Z" fill="white"/>
</mask>
<g mask="url(#mask64_99_2714)">
<path fill-rule="evenodd" clip-rule="evenodd" d="M126.867 59.0112C123.227 61.3814 120.664 62.4271 117.218 60.2834C114.709 57.9481 115.557 55.4559 116.017 52.9637C117.095 49.2515 118.791 44.7551 123.598 40.5898C125.931 38.7947 128.811 36.9648 131.674 37.7664C132.752 38.4984 130.048 38.9864 130.455 40.1541C130.243 40.8686 132.098 42.0537 133.035 41.8097C133.918 41.6877 134.855 41.6703 135.951 40.2064C137.311 38.481 134.714 36.1282 133.017 35.9191C127.61 34.978 121.689 36.7731 115.769 42.4197C110.909 47.6307 108.63 52.5977 110.697 58.5755C111.21 59.7432 112.5 61.2071 113.649 61.852C116.105 63.2985 118.667 63.5599 121.566 63.1765C124.163 62.8105 126.479 61.6777 128.988 59.656C129.801 58.9938 130.826 58.0875 131.815 57.129L130.631 55.6824C129.412 56.9721 128.069 58.1398 126.867 59.0112Z" fill="#C7AE39"/>
</g>
<mask id="mask65_99_2714" style="mask-type:luminance" maskUnits="userSpaceOnUse" x="0" y="0" width="322" height="142">
<path d="M321.595 0H0V141.393H321.595V0Z" fill="white"/>
</mask>
<g mask="url(#mask65_99_2714)">
<path fill-rule="evenodd" clip-rule="evenodd" d="M141.641 40.0844C142.154 40.2935 142.595 39.4395 141.782 39.4047C141.535 39.3524 141.164 39.4047 140.651 39.3873L141.235 40.0669C141.394 40.0669 141.553 40.0844 141.641 40.0844Z" fill="#C0C07F"/>
</g>
<mask id="mask66_99_2714" style="mask-type:luminance" maskUnits="userSpaceOnUse" x="0" y="0" width="322" height="142">
<path d="M321.595 0H0V141.393H321.595V0Z" fill="white"/>
</mask>
<g mask="url(#mask66_99_2714)">
<path fill-rule="evenodd" clip-rule="evenodd" d="M148.993 59.7606C146.041 63.1242 143.355 63.9259 140.758 62.9499C143.638 65.1807 146.925 63.281 149.982 59.7432C150.442 59.2029 150.919 58.558 151.361 57.9132L150.884 57.2335C150.283 58.1746 149.611 59.046 148.993 59.7606Z" fill="#C0C07F"/>
</g>
<mask id="mask67_99_2714" style="mask-type:luminance" maskUnits="userSpaceOnUse" x="0" y="0" width="322" height="142">
<path d="M321.595 0H0V141.393H321.595V0Z" fill="white"/>
</mask>
<g mask="url(#mask67_99_2714)">
<path fill-rule="evenodd" clip-rule="evenodd" d="M155.337 27.5536C155.072 28.7735 154.824 29.6972 153.287 31.1438C151.714 32.3289 150.495 32.1372 148.904 31.5097C150.919 33.392 153.305 32.9214 155.319 29.8889C156.061 28.4773 155.955 27.3444 155.408 26.0722C155.443 26.5602 155.408 27.0656 155.337 27.5536Z" fill="#C0C07F"/>
</g>
<mask id="mask68_99_2714" style="mask-type:luminance" maskUnits="userSpaceOnUse" x="0" y="0" width="322" height="142">
<path d="M321.595 0H0V141.393H321.595V0Z" fill="white"/>
</mask>
<g mask="url(#mask68_99_2714)">
<path fill-rule="evenodd" clip-rule="evenodd" d="M147.296 29.3836C148.144 31.4227 150.336 31.475 151.926 30.255C153.888 28.4774 155.089 26.4731 153.446 24.1552C151.749 22.8655 149.275 23.9286 147.72 26.5254C147.172 27.5537 147.031 28.3728 147.296 29.3836Z" fill="#C7AE39"/>
</g>
<mask id="mask69_99_2714" style="mask-type:luminance" maskUnits="userSpaceOnUse" x="0" y="0" width="322" height="142">
<path d="M321.595 0H0V141.393H321.595V0Z" fill="white"/>
</mask>
<g mask="url(#mask69_99_2714)">
<path fill-rule="evenodd" clip-rule="evenodd" d="M151.909 38.4288C150.353 42.2456 149.24 44.4415 147.791 47.3171C147.243 48.3628 146.589 49.6176 145.865 51.0119C145.158 52.4061 144.398 53.9572 143.921 55.0377C143.143 57.0245 142.755 57.5474 143.267 58.5059C144.168 58.715 143.832 57.6868 144.08 57.2511C144.522 55.7174 144.734 55.3166 145.388 53.9049C146.907 50.7504 149.7 45.5395 151.131 42.2281C151.873 40.5725 152.669 38.4985 153.499 36.4943L152.987 35.6926C152.633 36.6337 152.262 37.5749 151.909 38.4288Z" fill="#C0C07F"/>
</g>
<mask id="mask70_99_2714" style="mask-type:luminance" maskUnits="userSpaceOnUse" x="0" y="0" width="322" height="142">
<path d="M321.595 0H0V141.393H321.595V0Z" fill="white"/>
</mask>
<g mask="url(#mask70_99_2714)">
<path fill-rule="evenodd" clip-rule="evenodd" d="M142.595 38.8993C141.429 38.5507 140.263 39.1607 139.079 38.4636C138.99 38.3067 138.99 38.115 139.079 37.9233C139.485 37.261 139.573 36.5465 140.263 35.9191C143.249 35.5879 146.2 35.8668 149.24 35.0303C150.141 34.9257 151.025 32.8692 152.085 33.8974C152.386 34.0194 152.527 34.3854 152.403 34.6468C149.682 42.0712 145.281 49.4955 142.295 56.8501C142.224 57.6867 141.376 59.5166 142.966 59.3772C145.069 58.8369 146.801 55.7522 148.356 53.9919C148.568 53.9571 148.78 53.9745 148.993 54.2011C149.47 54.8808 150.212 55.5779 150.424 56.2401C149.364 58.1398 147.473 60.7714 144.822 62.0088C142.56 62.8976 140.086 63.2288 137.771 60.5449C133.6 53.8176 140.422 46.585 142.843 39.7532C142.878 39.4744 142.949 39.1955 142.595 38.8993Z" fill="#FF004D"/>
</g>
<mask id="mask71_99_2714" style="mask-type:luminance" maskUnits="userSpaceOnUse" x="0" y="0" width="322" height="142">
<path d="M321.595 0H0V141.393H321.595V0Z" fill="white"/>
</mask>
<g mask="url(#mask71_99_2714)">
<path fill-rule="evenodd" clip-rule="evenodd" d="M140.51 38.1673C141.588 38.1499 143.638 38.1151 143.479 39.4744C143.55 40.9384 141.8 43.6049 140.704 45.7834C140.192 46.7594 139.697 47.7527 139.291 48.5893C137.364 53.0334 136.11 55.6128 137.93 59.6735C140.51 63.2463 144.08 62.6363 147.155 59.6212C148.021 58.7498 149.01 57.5124 149.859 56.2576L148.551 54.5671C147.932 55.5082 147.261 56.4319 146.695 57.129C144.928 59.2204 143.461 60.5798 141.906 59.7258C141.093 58.5407 141.606 57.5299 141.906 56.1356C142.348 54.9854 142.472 54.7065 143.179 53.26C143.656 52.2666 144.345 50.8724 144.963 49.6524C145.582 48.415 146.112 47.3693 146.589 46.4282C148.162 43.2563 148.798 41.8098 149.965 39.1085C150.689 37.4005 151.308 35.9191 151.891 34.4377L151.325 34.2112C149.275 36.32 148.021 35.9017 146.165 36.1283L140.492 36.4768L139.609 38.2022L140.51 38.1673Z" fill="#C7AE39"/>
</g>
<mask id="mask72_99_2714" style="mask-type:luminance" maskUnits="userSpaceOnUse" x="0" y="0" width="322" height="142">
<path d="M321.595 0H0V141.393H321.595V0Z" fill="white"/>
</mask>
<g mask="url(#mask72_99_2714)">
<path fill-rule="evenodd" clip-rule="evenodd" d="M178.434 36.0759C174.44 35.7447 170.818 37.139 167 41.0603C164.067 44.2845 163.413 46.097 162.264 48.9029C161.416 51.5171 160.055 53.9919 161.151 57.2509C161.557 57.826 162.37 57.2509 161.805 56.6758C161.133 54.0442 162.494 50.2971 164.332 46.3933C165.445 44.1276 166.647 42.2977 168.962 40.154C172.214 37.2087 176.031 36.1979 179.247 36.8427L179.636 36.2327C179.212 36.1804 178.805 36.1107 178.434 36.0759Z" fill="#C0C07F"/>
</g>
<mask id="mask73_99_2714" style="mask-type:luminance" maskUnits="userSpaceOnUse" x="0" y="0" width="322" height="142">
<path d="M321.595 0H0V141.393H321.595V0Z" fill="white"/>
</mask>
<g mask="url(#mask73_99_2714)">
<path fill-rule="evenodd" clip-rule="evenodd" d="M182.163 58.0003C180.007 60.2137 177.94 61.5382 176.172 61.2594C175.66 61.1897 175.006 60.9805 174.37 60.6494C176.862 62.7582 179.194 61.6602 181.615 59.6211C182.517 58.8194 183.824 57.4078 185.044 55.9787L184.531 55.2641C183.736 56.275 182.905 57.2335 182.163 58.0003Z" fill="#C0C07F"/>
</g>
<mask id="mask74_99_2714" style="mask-type:luminance" maskUnits="userSpaceOnUse" x="0" y="0" width="322" height="142">
<path d="M321.595 0H0V141.393H321.595V0Z" fill="white"/>
</mask>
<g mask="url(#mask74_99_2714)">
<path fill-rule="evenodd" clip-rule="evenodd" d="M167.654 59.046C164.314 62.2702 161.31 62.8976 158.094 61.5034C160.267 63.4553 162.459 62.8453 164.721 62.0088C166.559 61.2419 168.679 59.3946 170.022 57.5124L169.899 56.2924C169.209 57.3032 168.414 58.2618 167.654 59.046Z" fill="#C0C07F"/>
</g>
<mask id="mask75_99_2714" style="mask-type:luminance" maskUnits="userSpaceOnUse" x="0" y="0" width="322" height="142">
<path d="M321.595 0H0V141.393H321.595V0Z" fill="white"/>
</mask>
<g mask="url(#mask75_99_2714)">
<path fill-rule="evenodd" clip-rule="evenodd" d="M186.528 39.0387C186.21 39.9101 184.884 40.9732 183.435 41.2172C182.181 43.4828 180.855 46.219 179.494 48.8855C178.664 50.5411 177.869 52.1968 177.391 53.3471C176.596 55.3164 176.384 55.909 176.561 56.7978C176.632 57.2684 177.391 56.9895 177.215 56.519C177.321 55.4733 178.611 52.4408 179.636 50.4191C180.961 47.7352 182.41 44.755 184.036 41.8097C185.874 41.618 188.171 39.0561 186.899 37.8013C186.828 38.237 186.705 38.6552 186.528 39.0387Z" fill="#C0C07F"/>
</g>
<mask id="mask76_99_2714" style="mask-type:luminance" maskUnits="userSpaceOnUse" x="0" y="0" width="322" height="142">
<path d="M321.595 0H0V141.393H321.595V0Z" fill="white"/>
</mask>
<g mask="url(#mask76_99_2714)">
<path fill-rule="evenodd" clip-rule="evenodd" d="M198.598 22.2904C198.227 21.907 197.909 21.8721 197.502 21.8896C197.485 21.8896 197.237 21.9418 197.008 21.9941L197.767 22.7261L198.845 22.6564C198.775 22.517 198.686 22.395 198.598 22.2904Z" fill="#C0C07F"/>
</g>
<mask id="mask77_99_2714" style="mask-type:luminance" maskUnits="userSpaceOnUse" x="0" y="0" width="322" height="142">
<path d="M321.595 0H0V141.393H321.595V0Z" fill="white"/>
</mask>
<g mask="url(#mask77_99_2714)">
<path fill-rule="evenodd" clip-rule="evenodd" d="M200.507 56.6585C197.343 60.0395 194.445 60.7889 191.971 59.9001C194.675 61.5383 196.089 60.8586 198.722 59.2727C200.436 58.0353 201.744 56.5713 203.263 54.7588L202.751 53.9745C202.009 54.9679 201.213 55.9091 200.507 56.6585Z" fill="#C0C07F"/>
</g>
<mask id="mask78_99_2714" style="mask-type:luminance" maskUnits="userSpaceOnUse" x="0" y="0" width="322" height="142">
<path d="M321.595 0H0V141.393H321.595V0Z" fill="white"/>
</mask>
<g mask="url(#mask78_99_2714)">
<path fill-rule="evenodd" clip-rule="evenodd" d="M209.378 20.4779C208.583 23.4058 207.222 27.2748 206.02 30.1853C205.349 31.8409 204.306 34.2111 203.263 36.4245C201.125 41.0255 199.446 44.0057 197.679 47.6481C197.061 48.9552 196.424 50.3146 195.859 51.674C195.452 52.7197 195.117 53.4865 194.905 54.5496C194.657 54.9679 195.24 56.0136 195.682 55.0028C195.841 53.7654 196.336 52.5803 196.795 51.5346C197.29 50.4192 198.315 48.2058 199.411 46.0448C200.895 43.1169 202.398 40.1889 203.758 37.3133C204.076 36.6336 204.412 35.9365 204.801 35.1C205.19 34.246 205.631 33.2526 205.95 32.5555C206.268 31.8584 206.427 31.4749 206.55 31.1612C206.851 30.4641 207.381 29.0873 208 27.3968C208.918 24.8697 209.802 21.9767 210.58 19.0836L209.908 18.3865C209.749 19.0662 209.572 19.7459 209.378 20.4779Z" fill="#C0C07F"/>
</g>
<mask id="mask79_99_2714" style="mask-type:luminance" maskUnits="userSpaceOnUse" x="0" y="0" width="322" height="142">
<path d="M321.595 0H0V141.393H321.595V0Z" fill="white"/>
</mask>
<g mask="url(#mask79_99_2714)">
<path fill-rule="evenodd" clip-rule="evenodd" d="M198.386 54.1836C196.725 56.1007 195.311 57.3033 194.003 56.9024C192.66 55.8393 193.349 54.5671 193.597 53.3122C194.003 51.9529 194.516 50.7329 195.117 49.4606C196.495 46.4107 198.898 41.7749 201.001 37.6619C203.069 33.6534 205.031 29.0176 206.215 25.4449C207.01 23.0398 207.858 20.1119 208.547 17.184L208.07 16.8877C206.197 18.9791 205.349 18.3865 203.529 18.6654L197.114 19.0662L195.824 20.8439C196.866 20.809 197.803 20.7741 198.828 20.9484C199.729 20.931 200.56 22.0464 200.471 22.8132C200.489 23.8589 200.33 24.6606 199.906 26.0548C199.623 26.9611 199.199 28.1113 198.916 28.8607C198.28 30.5164 198.209 30.621 197.732 31.6666C196.283 34.7863 194.869 37.3656 192.996 40.8861C191.653 43.4306 190.416 45.8705 189.585 47.9967C188.596 51.1512 187.959 53.4865 189.462 56.763C189.921 57.8784 192.024 59.412 193.897 59.1332C195.435 59.1158 197.237 58.1049 198.545 56.7456C199.429 55.8742 200.648 54.4276 201.744 52.9463L200.401 51.552C199.729 52.528 199.004 53.4691 198.386 54.1836Z" fill="#C7AE39"/>
</g>
<mask id="mask80_99_2714" style="mask-type:luminance" maskUnits="userSpaceOnUse" x="0" y="0" width="322" height="142">
<path d="M321.595 0H0V141.393H321.595V0Z" fill="white"/>
</mask>
<g mask="url(#mask80_99_2714)">
<path fill-rule="evenodd" clip-rule="evenodd" d="M180.608 54.689C179.459 56.2052 178.947 57.0244 177.498 57.9306C176.526 58.4186 175.713 58.3663 174.953 57.1812C174.741 56.2052 174.988 55.787 175.342 54.6716C176.031 52.8242 177.127 50.4889 178.028 48.6241C179.07 46.5153 181.014 42.7508 182.481 40.0843C183.754 40.5898 186.21 38.0801 185.203 36.3896C184.708 34.8559 182.534 33.8103 180.926 33.4268C175.041 32.3463 167.266 33.3746 160.091 39.9101C154.824 45.3127 153.234 50.0706 154.365 56.3272C154.736 57.8783 156.15 59.6386 157.475 60.3531C160.303 61.8345 163.607 60.9805 166.4 58.2095C167.955 56.7107 169.298 54.7413 170.199 53.1553C172.161 49.7917 173.239 47.5087 174.794 44.1799C175.112 44.1276 175.889 44.5459 175.607 44.8073C175.518 45.1559 174.953 46.2016 174.352 47.3692C173.946 48.1535 173.504 49.0249 173.168 49.7395C172.072 52.0922 171.666 53.0856 171.365 55.0724C171.118 56.5887 171.931 58.7323 173.804 59.7083C175.889 60.7714 178.24 59.9697 180.166 57.9655C180.961 57.1638 182.198 55.6476 183.312 54.1313L182.075 52.4757C181.598 53.2599 181.05 54.0616 180.608 54.689ZM174.193 41.1823L174.599 40.3283C175.536 40.2586 176.084 40.276 176.632 40.2412C177.71 40.1541 179.618 40.0495 180.732 39.6835C180.944 39.6312 181.138 39.5441 181.35 39.4744C180.166 39.2478 179.565 37.4179 180.944 37.1564C181.226 37.1216 182.693 36.5987 181.651 35.797C178.558 33.9497 173.928 34.5771 169.846 36.9822C167.142 38.4984 164.173 41.9317 162.812 44.5285C161.504 46.8813 160.515 49.3212 159.737 52.2491C159.348 54.3927 158.553 56.2575 160.285 58.2966C162.317 59.7431 165.392 57.0418 166.771 54.7936C169.351 50.9246 172.055 45.7833 174.193 41.1823Z" fill="#C7AE39"/>
</g>
<mask id="mask81_99_2714" style="mask-type:luminance" maskUnits="userSpaceOnUse" x="0" y="0" width="322" height="142">
<path d="M321.595 0H0V141.393H321.595V0Z" fill="white"/>
</mask>
<g mask="url(#mask81_99_2714)">
<path fill-rule="evenodd" clip-rule="evenodd" d="M102.586 58.8195C99.1399 61.8346 94.7926 64.6928 90.834 61.8694C88.6427 59.8652 88.8017 57.9133 89.9858 55.6825C90.8694 54.1662 92.884 52.6326 94.6689 51.796C95.4288 51.43 96.277 51.0641 97.1606 50.7678C98.0972 50.4541 99.0515 50.1229 99.7761 49.8615C102.621 48.8333 103.452 48.5021 105.502 46.3236C107.304 44.0057 107.994 41.8446 106.562 39.091C104.318 36.6511 102.551 37.4528 100.112 37.7491C96.3124 38.4985 90.9931 41.3567 87.4233 46.0448C84.1363 50.6458 81.5032 55.8916 84.8609 61.3814C88.625 65.7733 92.9193 65.5642 97.408 64.1699C100.518 62.9848 102.339 61.4511 105.219 58.7847L104.035 57.3033C103.558 57.8436 103.081 58.349 102.586 58.8195ZM90.2332 52.8069C93.8029 48.537 97.5847 49.2864 101.897 44.5285C103.081 42.9252 104.335 40.9558 102.427 39.579C101.084 39.1084 99.9528 39.7881 98.6451 40.7467C98.1679 41.1127 97.6201 41.5832 96.9485 42.2455C94.3154 44.8423 90.9577 49.4781 90.2332 52.8069Z" fill="#C7AE39"/>
</g>
<mask id="mask82_99_2714" style="mask-type:luminance" maskUnits="userSpaceOnUse" x="0" y="0" width="322" height="142">
<path d="M321.595 0H0V141.393H321.595V0Z" fill="white"/>
</mask>
<g mask="url(#mask82_99_2714)">
<path fill-rule="evenodd" clip-rule="evenodd" d="M44.4627 79.0884C45.5053 78.5481 46.5303 78.4435 47.9794 78.339L55.5607 77.8684L56.2852 75.899C54.9245 75.7596 52.5034 76.4219 52.1676 74.2085C52.1676 73.128 52.6448 71.8557 53.3163 70.0607L57.2572 60.0221L57.9464 59.9698C57.5223 62.0438 56.9214 63.8737 59.0244 65.9651C62.4174 68.0913 66.5703 66.6273 70.9 63.4032C78.0041 57.1988 80.3722 50.8201 79.2058 43.2912C78.87 41.8621 77.6683 40.3459 76.4667 39.8056C72.8262 38.0803 68.1608 40.2065 64.8561 44.7552C63.8312 46.2191 62.7355 47.9968 61.8519 49.757C61.2864 50.8376 59.6782 54.5846 58.883 56.5888C58.4765 56.6934 57.7873 56.2054 58.0347 55.822C58.1054 55.3514 58.6356 54.3232 58.936 53.5563C59.1481 53.0683 59.6252 51.9355 60.0847 50.8898C60.4205 50.123 60.8799 49.0773 61.3924 47.8922C61.7812 47.0034 61.9756 46.5503 62.223 45.9751C62.3467 45.6963 63.0713 43.9535 63.6898 42.4198C64.2376 41.0779 64.485 40.4156 64.7678 39.6314L64.1669 39.3525C62.2937 41.3742 61.4101 41.1127 59.8373 41.3219L53.7758 41.6879L52.9099 43.4655C53.9702 43.6224 55.9671 42.6987 56.9744 44.6158C57.2042 45.6963 56.9568 46.3586 56.568 47.6482C55.7374 50.0882 54.1823 53.1381 52.9806 55.8743C52.0086 58.0353 51.0543 60.301 50.1 62.4969C49.6405 63.56 49.1987 64.5708 48.8983 65.2854C47.891 67.6382 47.838 67.7776 47.3962 68.893C46.8484 70.3395 45.5583 73.5985 45.0458 74.9231C44.7454 75.7073 44.4803 76.3696 44.3389 76.7704C44.0385 77.5547 43.7204 78.4261 43.4907 79.0884C43.8618 79.3672 44.1269 79.3672 44.4627 79.0884ZM74.1163 43.9186C74.0102 42.8033 74.0279 41.7227 72.7025 41.1824C71.112 40.9559 69.9103 41.9493 68.1431 43.7618C65.0859 47.0905 63.2657 50.8898 61.7635 54.602C61.1097 56.188 60.4381 58.0876 60.1377 59.4121C59.8373 61.1201 58.8123 63.56 61.1274 64.9194C63.0536 65.7734 64.8208 64.4488 66.9945 61.9915C70.4405 57.7216 72.5965 53.1555 73.7805 47.8748C74.0456 46.4631 74.1693 45.2083 74.1163 43.9186Z" fill="#C7AE39"/>
</g>
<mask id="mask83_99_2714" style="mask-type:luminance" maskUnits="userSpaceOnUse" x="0" y="0" width="322" height="142">
<path d="M321.595 0H0V141.393H321.595V0Z" fill="white"/>
</mask>
<g mask="url(#mask83_99_2714)">
<path fill-rule="evenodd" clip-rule="evenodd" d="M28.9997 53.1555C28.2752 53.2775 27.4976 53.382 26.7024 53.4866C25.2533 53.6783 22.5494 54.0094 19.9693 54.4277C15.9224 55.1248 13.7665 55.578 10.5678 57.1988C8.942 58.105 7.13946 59.203 5.2839 61.4164C2.01458 65.7908 0.353411 70.5835 6.0438 75.533C11.2747 79.2452 16.8591 79.1406 22.6908 77.5895C26.7377 76.3522 30.9967 74.0865 35.4323 69.3112C40.2568 63.8737 41.2994 57.9307 39.6029 52.7372C41.0344 51.9529 42.3598 51.3604 43.8089 49.513C44.7808 48.1013 45.3287 45.888 43.3671 44.8249C42.5011 44.4415 40.84 44.4066 40.1508 45.9403C41.7589 46.9162 41.5468 48.1711 40.1154 49.391C39.6913 49.7396 39.1258 50.0707 38.5603 50.3496C36.8814 47.2822 34.2837 44.4589 32.8345 41.043C31.9686 38.2022 32.4634 34.9432 35.8565 31.719C39.6029 28.5994 42.9429 27.484 47.4846 28.5123C48.4036 28.7737 49.7113 29.9239 49.9764 30.9348C50.7186 33.4967 49.9057 36.6511 45.6821 39.2653C44.339 39.8753 42.3598 40.5202 41.1404 38.4811C40.8753 37.5574 40.9637 36.4594 42.5011 35.0478C43.2434 34.4901 44.4804 34.0369 44.8162 35.4138C46.7601 34.7689 46.9368 32.939 45.0282 31.8236C43.2787 31.2485 40.5926 31.9456 38.6663 35.1349C37.8887 37.0171 36.8814 38.8994 39.815 41.165C43.0313 42.7509 47.52 42.8904 51.6906 38.4637C53.9703 35.3092 54.6771 32.2419 52.3091 28.4774C49.7467 25.7586 47.4316 25.7238 44.1623 25.7412C39.4792 26.1595 34.7431 27.3446 29.8126 32.7298C25.9601 37.3308 25.6244 42.8555 28.0278 46.9685C28.8053 48.6068 30.3075 51.2035 31.1204 52.8243C30.4312 52.9463 29.7419 53.0509 28.9997 53.1555ZM32.1984 55.5257C25.5537 57.1116 18.1845 57.3382 11.2924 62.0089C6.59163 65.6339 5.38993 69.1021 8.07608 72.9363C10.6562 75.4808 13.0242 75.777 16.2936 75.7073C20.5348 75.3413 24.4934 73.9994 29.1411 69.1544C32.0747 65.7908 33.0643 63.0546 33.0113 59.1681C32.9229 57.6868 32.6578 56.8851 32.1984 55.5257Z" fill="#C7AE39"/>
</g>
</svg>
